{
	"patcher" : 	{
		"fileversion" : 1,
		"appversion" : 		{
			"major" : 8,
			"minor" : 6,
			"revision" : 5,
			"architecture" : "x64",
			"modernui" : 1
		}
,
		"classnamespace" : "dsp.gen",
		"rect" : [ 34.0, 77.0, 1118.0, 705.0 ],
		"bglocked" : 0,
		"openinpresentation" : 0,
		"default_fontsize" : 12.0,
		"default_fontface" : 0,
		"default_fontname" : "Arial",
		"gridonopen" : 1,
		"gridsize" : [ 15.0, 15.0 ],
		"gridsnaponopen" : 1,
		"objectsnaponopen" : 1,
		"statusbarvisible" : 2,
		"toolbarvisible" : 1,
		"lefttoolbarpinned" : 0,
		"toptoolbarpinned" : 0,
		"righttoolbarpinned" : 0,
		"bottomtoolbarpinned" : 0,
		"toolbars_unpinned_last_save" : 0,
		"tallnewobj" : 0,
		"boxanimatetime" : 200,
		"enablehscroll" : 1,
		"enablevscroll" : 1,
		"devicewidth" : 0.0,
		"description" : "",
		"digest" : "",
		"tags" : "",
		"style" : "",
		"subpatcher_template" : "",
		"assistshowspatchername" : 0,
		"boxes" : [ 			{
				"box" : 				{
					"id" : "obj-3",
					"maxclass" : "newobj",
					"numinlets" : 1,
					"numoutlets" : 0,
					"patching_rect" : [ 552.0, 75.0, 35.0, 22.0 ],
					"text" : "out 1"
				}

			}
, 			{
				"box" : 				{
					"id" : "obj-2",
					"maxclass" : "newobj",
					"numinlets" : 2,
					"numoutlets" : 2,
					"outlettype" : [ "", "" ],
					"patching_rect" : [ 552.0, 47.0, 237.0, 22.0 ],
					"text" : "peek function @index phase @interp cubic"
				}

			}
, 			{
				"box" : 				{
					"id" : "obj-1",
					"maxclass" : "newobj",
					"numinlets" : 0,
					"numoutlets" : 1,
					"outlettype" : [ "" ],
					"patching_rect" : [ 552.0, 15.0, 290.0, 22.0 ],
					"text" : "in 2 @comment read function (0\\, 1) @min 0 @max 1"
				}

			}
, 			{
				"box" : 				{
					"id" : "obj-83",
					"maxclass" : "newobj",
					"numinlets" : 0,
					"numoutlets" : 2,
					"outlettype" : [ "", "" ],
					"patching_rect" : [ 24.0, 475.0, 124.0, 22.0 ],
					"text" : "data breakpoints 32 2"
				}

			}
, 			{
				"box" : 				{
					"id" : "obj-75",
					"maxclass" : "newobj",
					"numinlets" : 0,
					"numoutlets" : 2,
					"outlettype" : [ "", "" ],
					"patching_rect" : [ 24.0, 505.0, 77.0, 22.0 ],
					"text" : "data function"
				}

			}
, 			{
				"box" : 				{
					"id" : "obj-74",
					"maxclass" : "newobj",
					"numinlets" : 0,
					"numoutlets" : 1,
					"outlettype" : [ "" ],
					"patching_rect" : [ 24.0, 15.0, 378.0, 22.0 ],
					"text" : "in 1 @comment generate random function (number of points) @min 0"
				}

			}
, 			{
				"box" : 				{
					"code" : "if(in1 > 0){\r\n\t//reset buffers\r\n\tfor(i =0; i < dim(breakpoints); i += 1){\r\n\t\tpoke(breakpoints, 0, i, 0);\r\n\t\tpoke(breakpoints, 0, i, 1);\r\n\t}\r\n\t\r\n\tfor(i =0; i < dim(function); i += 1){\r\n\t\tpoke(function, 0, i);\r\n\t}\r\n\t\r\n\t//fill breakpoints\r\n\tfor(i = 0; i < in1; i += 1){\r\n\t\ttime = scale(noise(), -1, 1, 0, dim(function));\r\n\t\tpoke(breakpoints, time, i, 1);\r\n\r\n\t\tvalue = scale(noise(), -1, 1, 0, 1); \r\n\t\tpoke(breakpoints, value, i, 0);\r\n\t}\r\n\t\r\n\t// sort the time values\r\n    for(pass = 0; pass < in1 - 1; pass += 1) {\r\n        for(i = 0; i < in1 - 1 - pass; i += 1){\r\n            a = peek(breakpoints, i, 1);\r\n           b = peek(breakpoints, i + 1, 1);\r\n\r\n            if(a > b){\r\n                // Swap values\r\n                poke(breakpoints, b, i, 1);\r\n                poke(breakpoints, a, i + 1, 1);\r\n           }\r\n       }\r\n   }\r\n\t\r\n\t//caluculate function\r\n\tfor(i = 0; i <in1 ;i+= 1){\r\n\tlo_time = peek(breakpoints, i, 1); \r\n\thi_time = peek(breakpoints, i +1, 1); \r\n\t\r\n\tlo_val = peek(breakpoints,i, 0); \r\n\thi_val = peek(breakpoints, i +1, 0); \r\n\r\n\t\tfor(q =lo_time; q < hi_time; q += 1){\r\n\t\t\tval = scale(q, lo_time, hi_time, lo_val, hi_val);\r\n\t\t\tpoke(function, val, q, 0);\r\n\t\t} \r\n\t}\r\n\t\r\n\t//fill from start to first point\r\n\tfirst_time = peek(breakpoints, 0, 1);\r\n\tfirst_val = peek(breakpoints, 0, 0);\r\n\t\r\n\tfor(x= 0; x < first_time; x+= 1){\r\n\t\tv = scale(x, 0,first_time , 0,first_val );\r\n\t\tpoke(function, v,x);\r\n\t}\r\n\t\r\n\t//fill from last point to end\r\n\tlast_time = peek(breakpoints, in1 - 1, 1);\r\n\tlast_val = peek(breakpoints, in1 - 1, 0);\r\n\t\r\n\tfor(x= last_time; x < dim(function); x+= 1){\r\n\t\tv = scale(x, last_time,dim(function) , last_val,0 );\r\n\t\tpoke(function, v,x);\r\n\t}\r\n}\r\n\r\n",
					"fontface" : 0,
					"fontname" : "<Monospaced>",
					"fontsize" : 12.0,
					"id" : "obj-72",
					"maxclass" : "codebox",
					"numinlets" : 1,
					"numoutlets" : 0,
					"patching_rect" : [ 24.0, 45.0, 518.0, 417.0 ]
				}

			}
 ],
		"lines" : [ 			{
				"patchline" : 				{
					"destination" : [ "obj-2", 0 ],
					"source" : [ "obj-1", 0 ]
				}

			}
, 			{
				"patchline" : 				{
					"destination" : [ "obj-3", 0 ],
					"source" : [ "obj-2", 0 ]
				}

			}
, 			{
				"patchline" : 				{
					"destination" : [ "obj-72", 0 ],
					"source" : [ "obj-74", 0 ]
				}

			}
 ]
	}

}
