{
	"patcher" : 	{
		"fileversion" : 1,
		"appversion" : 		{
			"major" : 8,
			"minor" : 6,
			"revision" : 1,
			"architecture" : "x64",
			"modernui" : 1
		}
,
		"classnamespace" : "rnbo",
		"rect" : [ 803.0, 84.0, 699.0, 697.0 ],
		"bglocked" : 0,
		"openinpresentation" : 0,
		"default_fontsize" : 12.0,
		"default_fontface" : 0,
		"default_fontname" : "Lato",
		"gridonopen" : 1,
		"gridsize" : [ 15.0, 15.0 ],
		"gridsnaponopen" : 1,
		"objectsnaponopen" : 1,
		"statusbarvisible" : 2,
		"toolbarvisible" : 1,
		"lefttoolbarpinned" : 0,
		"toptoolbarpinned" : 0,
		"righttoolbarpinned" : 0,
		"bottomtoolbarpinned" : 0,
		"toolbars_unpinned_last_save" : 0,
		"tallnewobj" : 0,
		"boxanimatetime" : 200,
		"enablehscroll" : 1,
		"enablevscroll" : 1,
		"devicewidth" : 0.0,
		"description" : "",
		"digest" : "",
		"tags" : "",
		"style" : "",
		"subpatcher_template" : "",
		"assistshowspatchername" : 0,
		"title" : "untitled",
		"boxes" : [ 			{
				"box" : 				{
					"id" : "obj-55",
					"maxclass" : "newobj",
					"numinlets" : 1,
					"numoutlets" : 1,
					"outlettype" : [ "" ],
					"patching_rect" : [ 64.0, 284.946249127388, 34.0, 23.0 ],
					"rnbo_classname" : "floor",
					"rnbo_extra_attributes" : 					{
						"hot" : 0
					}
,
					"rnbo_serial" : 1,
					"rnbo_uniqueid" : "floor_obj-55",
					"text" : "floor"
				}

			}
, 			{
				"box" : 				{
					"id" : "obj-13",
					"linecount" : 2,
					"maxclass" : "comment",
					"numinlets" : 1,
					"numoutlets" : 0,
					"patching_rect" : [ 332.258079171180725, 112.903230786323547, 201.0, 35.0 ],
					"presentation_linecount" : 2,
					"text" : "Farnell, A., 2010. Designing Sound. Cambridge, Mass.: MIT Press."
				}

			}
, 			{
				"box" : 				{
					"id" : "obj-14",
					"linecount" : 2,
					"maxclass" : "comment",
					"numinlets" : 1,
					"numoutlets" : 0,
					"patching_rect" : [ 332.258079171180725, 77.419358253479004, 150.0, 35.0 ],
					"presentation_linecount" : 2,
					"text" : "modified code from Andy Farnell's Designing sound"
				}

			}
, 			{
				"box" : 				{
					"fontsize" : 36.0,
					"id" : "obj-74",
					"maxclass" : "comment",
					"numinlets" : 1,
					"numoutlets" : 0,
					"patching_rect" : [ 332.258079171180725, 22.580646157264709, 310.0, 50.0 ],
					"text" : "FIELD CRICKET 1"
				}

			}
, 			{
				"box" : 				{
					"id" : "obj-53",
					"linecount" : 2,
					"maxclass" : "comment",
					"numinlets" : 1,
					"numoutlets" : 0,
					"patching_rect" : [ 300.559150218963623, 552.688196420669556, 150.0, 35.0 ],
					"text" : "shapes am synthesis into clicks"
				}

			}
, 			{
				"box" : 				{
					"id" : "obj-54",
					"maxclass" : "comment",
					"numinlets" : 1,
					"numoutlets" : 0,
					"patching_rect" : [ 301.0, 235.0, 150.0, 21.0 ],
					"text" : "random speed for clicks"
				}

			}
, 			{
				"box" : 				{
					"id" : "obj-52",
					"maxclass" : "newobj",
					"numinlets" : 2,
					"numoutlets" : 1,
					"outlettype" : [ "signal" ],
					"patching_rect" : [ 26.365589737892151, 470.96776270866394, 51.0, 23.0 ],
					"rnbo_classname" : "phasor~",
					"rnbo_extra_attributes" : 					{
						"lock" : 0.0
					}
,
					"rnbo_serial" : 1,
					"rnbo_uniqueid" : "phasor~_obj-52",
					"text" : "phasor~"
				}

			}
, 			{
				"box" : 				{
					"id" : "obj-51",
					"maxclass" : "newobj",
					"numinlets" : 1,
					"numoutlets" : 0,
					"patching_rect" : [ 86.0, 159.0, 189.0, 23.0 ],
					"rnbo_classname" : "out",
					"rnbo_extra_attributes" : 					{
						"meta" : ""
					}
,
					"rnbo_serial" : 2,
					"rnbo_uniqueid" : "out_obj-51",
					"rnboinfo" : 					{
						"needsInstanceInfo" : 1,
						"argnames" : 						{
							"index" : 							{
								"attrOrProp" : 2,
								"digest" : "outlet number",
								"defaultarg" : 1,
								"isalias" : 0,
								"aliases" : [  ],
								"settable" : 1,
								"attachable" : 0,
								"isparam" : 0,
								"deprecated" : 0,
								"type" : "number",
								"mandatory" : 1
							}
,
							"comment" : 							{
								"attrOrProp" : 2,
								"digest" : "mouse over comment",
								"isalias" : 0,
								"aliases" : [  ],
								"settable" : 1,
								"attachable" : 0,
								"isparam" : 0,
								"deprecated" : 0,
								"type" : "symbol"
							}
,
							"meta" : 							{
								"attrOrProp" : 2,
								"digest" : "A JSON formatted string containing metadata for use by the exported code",
								"isalias" : 0,
								"aliases" : [  ],
								"settable" : 1,
								"attachable" : 0,
								"isparam" : 0,
								"deprecated" : 0,
								"type" : "symbol",
								"defaultValue" : "",
								"label" : "Metadata",
								"displayorder" : 3
							}

						}
,
						"inputs" : [ 							{
								"name" : "in1",
								"type" : [ "bang", "number", "list" ],
								"digest" : "value sent to outlet with index 2",
								"displayName" : "bang when done",
								"hot" : 1,
								"docked" : 0
							}
 ],
						"outputs" : [  ],
						"helpname" : "out",
						"aliasOf" : "out",
						"classname" : "out",
						"operator" : 0,
						"versionId" : -735743983,
						"changesPatcherIO" : 1
					}
,
					"text" : "out 2 @comment bang when done"
				}

			}
, 			{
				"box" : 				{
					"id" : "obj-50",
					"maxclass" : "newobj",
					"numinlets" : 1,
					"numoutlets" : 0,
					"patching_rect" : [ 26.365589737892151, 787.096808910369873, 159.0, 23.0 ],
					"rnbo_classname" : "out~",
					"rnbo_extra_attributes" : 					{
						"meta" : ""
					}
,
					"rnbo_serial" : 2,
					"rnbo_uniqueid" : "out~_obj-50",
					"rnboinfo" : 					{
						"needsInstanceInfo" : 1,
						"argnames" : 						{
							"in1" : 							{
								"attrOrProp" : 1,
								"digest" : "signal sent to outlet with index 1",
								"isalias" : 0,
								"aliases" : [  ],
								"settable" : 0,
								"attachable" : 0,
								"isparam" : 0,
								"deprecated" : 0,
								"inlet" : 1,
								"type" : "signal"
							}
,
							"index" : 							{
								"attrOrProp" : 2,
								"digest" : "outlet number",
								"defaultarg" : 1,
								"isalias" : 0,
								"aliases" : [  ],
								"settable" : 1,
								"attachable" : 0,
								"isparam" : 0,
								"deprecated" : 0,
								"type" : "number",
								"mandatory" : 1
							}
,
							"comment" : 							{
								"attrOrProp" : 2,
								"digest" : "mouse over comment",
								"isalias" : 0,
								"aliases" : [  ],
								"settable" : 1,
								"attachable" : 0,
								"isparam" : 0,
								"deprecated" : 0,
								"type" : "symbol"
							}
,
							"meta" : 							{
								"attrOrProp" : 2,
								"digest" : "A JSON formatted string containing metadata for use by the exported code",
								"isalias" : 0,
								"aliases" : [  ],
								"settable" : 1,
								"attachable" : 0,
								"isparam" : 0,
								"deprecated" : 0,
								"type" : "symbol",
								"defaultValue" : "",
								"label" : "Metadata",
								"displayorder" : 3
							}

						}
,
						"inputs" : [ 							{
								"name" : "in1",
								"type" : "signal",
								"digest" : "signal sent to outlet with index 1",
								"displayName" : "audio out",
								"hot" : 1,
								"docked" : 0
							}
 ],
						"outputs" : [  ],
						"helpname" : "out~",
						"aliasOf" : "out~",
						"classname" : "out~",
						"operator" : 0,
						"versionId" : 374499139,
						"changesPatcherIO" : 1
					}
,
					"text" : "out~ 1 @comment audio out"
				}

			}
, 			{
				"box" : 				{
					"id" : "obj-49",
					"maxclass" : "newobj",
					"numinlets" : 2,
					"numoutlets" : 1,
					"outlettype" : [ "signal" ],
					"patching_rect" : [ 26.365589737892151, 758.064549565315247, 40.0, 23.0 ],
					"rnbo_classname" : "*~",
					"rnbo_serial" : 12,
					"rnbo_uniqueid" : "*~_obj-49",
					"text" : "*~ 0.1"
				}

			}
, 			{
				"box" : 				{
					"id" : "obj-48",
					"maxclass" : "newobj",
					"numinlets" : 2,
					"numoutlets" : 1,
					"outlettype" : [ "signal" ],
					"patching_rect" : [ 26.365589737892151, 730.107559084892273, 29.5, 23.0 ],
					"rnbo_classname" : "*~",
					"rnbo_serial" : 11,
					"rnbo_uniqueid" : "*~_obj-48",
					"text" : "*~"
				}

			}
, 			{
				"box" : 				{
					"id" : "obj-47",
					"maxclass" : "newobj",
					"numinlets" : 2,
					"numoutlets" : 1,
					"outlettype" : [ "signal" ],
					"patching_rect" : [ 26.365589737892151, 693.548417687416077, 35.0, 23.0 ],
					"rnbo_classname" : "+~",
					"rnbo_serial" : 1,
					"rnbo_uniqueid" : "+~_obj-47",
					"text" : "+~ 1."
				}

			}
, 			{
				"box" : 				{
					"id" : "obj-46",
					"maxclass" : "newobj",
					"numinlets" : 2,
					"numoutlets" : 1,
					"outlettype" : [ "signal" ],
					"patching_rect" : [ 26.365589737892151, 666.666696071624756, 38.0, 23.0 ],
					"rnbo_classname" : "*~",
					"rnbo_serial" : 10,
					"rnbo_uniqueid" : "*~_obj-46",
					"text" : "*~ -4."
				}

			}
, 			{
				"box" : 				{
					"id" : "obj-45",
					"maxclass" : "newobj",
					"numinlets" : 2,
					"numoutlets" : 1,
					"outlettype" : [ "signal" ],
					"patching_rect" : [ 26.365589737892151, 638.709705591201782, 29.5, 23.0 ],
					"rnbo_classname" : "*~",
					"rnbo_serial" : 9,
					"rnbo_uniqueid" : "*~_obj-45",
					"text" : "*~"
				}

			}
, 			{
				"box" : 				{
					"id" : "obj-44",
					"maxclass" : "newobj",
					"numinlets" : 2,
					"numoutlets" : 1,
					"outlettype" : [ "signal" ],
					"patching_rect" : [ 26.365589737892151, 606.451639652252197, 40.0, 23.0 ],
					"rnbo_classname" : "-~",
					"rnbo_serial" : 1,
					"rnbo_uniqueid" : "-~_obj-44",
					"text" : "-~ 0.5"
				}

			}
, 			{
				"box" : 				{
					"id" : "obj-43",
					"maxclass" : "newobj",
					"numinlets" : 3,
					"numoutlets" : 1,
					"outlettype" : [ "signal" ],
					"patching_rect" : [ 26.365589737892151, 577.419380307197571, 66.0, 23.0 ],
					"rnbo_classname" : "fold~",
					"rnbo_serial" : 2,
					"rnbo_uniqueid" : "fold~_obj-43",
					"text" : "fold~ -1. 1."
				}

			}
, 			{
				"box" : 				{
					"id" : "obj-41",
					"maxclass" : "newobj",
					"numinlets" : 2,
					"numoutlets" : 1,
					"outlettype" : [ "signal" ],
					"patching_rect" : [ 26.365589737892151, 546.236583232879639, 47.0, 23.0 ],
					"rnbo_classname" : "*~",
					"rnbo_serial" : 8,
					"rnbo_uniqueid" : "*~_obj-41",
					"text" : "*~ 5.84"
				}

			}
, 			{
				"box" : 				{
					"id" : "obj-40",
					"maxclass" : "newobj",
					"numinlets" : 2,
					"numoutlets" : 1,
					"outlettype" : [ "signal" ],
					"patching_rect" : [ 120.9892498254776, 577.419380307197571, 29.5, 23.0 ],
					"rnbo_classname" : "*~",
					"rnbo_serial" : 7,
					"rnbo_uniqueid" : "*~_obj-40",
					"text" : "*~"
				}

			}
, 			{
				"box" : 				{
					"id" : "obj-38",
					"maxclass" : "newobj",
					"numinlets" : 2,
					"numoutlets" : 1,
					"outlettype" : [ "signal" ],
					"patching_rect" : [ 120.9892498254776, 638.709705591201782, 29.5, 23.0 ],
					"rnbo_classname" : "*~",
					"rnbo_serial" : 6,
					"rnbo_uniqueid" : "*~_obj-38",
					"text" : "*~"
				}

			}
, 			{
				"box" : 				{
					"id" : "obj-37",
					"maxclass" : "newobj",
					"numinlets" : 2,
					"numoutlets" : 1,
					"outlettype" : [ "signal" ],
					"patching_rect" : [ 191.956994891166687, 606.451639652252197, 40.0, 23.0 ],
					"rnbo_classname" : "*~",
					"rnbo_serial" : 5,
					"rnbo_uniqueid" : "*~_obj-37",
					"text" : "*~ 0.3"
				}

			}
, 			{
				"box" : 				{
					"id" : "obj-36",
					"maxclass" : "newobj",
					"numinlets" : 2,
					"numoutlets" : 2,
					"outlettype" : [ "signal", "signal" ],
					"patching_rect" : [ 191.956994891166687, 577.419380307197571, 42.0, 23.0 ],
					"rnbo_classname" : "cycle~",
					"rnbo_extra_attributes" : 					{
						"interp" : "linear",
						"buffername" : "RNBODefaultSinus",
						"index" : "freq"
					}
,
					"rnbo_serial" : 3,
					"rnbo_uniqueid" : "cycle~_obj-36",
					"text" : "cycle~"
				}

			}
, 			{
				"box" : 				{
					"id" : "obj-35",
					"maxclass" : "newobj",
					"numinlets" : 2,
					"numoutlets" : 1,
					"outlettype" : [ "signal" ],
					"patching_rect" : [ 215.612909913063049, 546.236583232879639, 33.0, 23.0 ],
					"rnbo_classname" : "*~",
					"rnbo_serial" : 4,
					"rnbo_uniqueid" : "*~_obj-35",
					"text" : "*~ 2."
				}

			}
, 			{
				"box" : 				{
					"id" : "obj-34",
					"maxclass" : "newobj",
					"numinlets" : 2,
					"numoutlets" : 2,
					"outlettype" : [ "signal", "signal" ],
					"patching_rect" : [ 169.376348733901978, 546.236583232879639, 42.0, 23.0 ],
					"rnbo_classname" : "cycle~",
					"rnbo_extra_attributes" : 					{
						"interp" : "linear",
						"buffername" : "RNBODefaultSinus",
						"index" : "freq"
					}
,
					"rnbo_serial" : 2,
					"rnbo_uniqueid" : "cycle~_obj-34",
					"text" : "cycle~"
				}

			}
, 			{
				"box" : 				{
					"id" : "obj-33",
					"maxclass" : "newobj",
					"numinlets" : 2,
					"numoutlets" : 2,
					"outlettype" : [ "signal", "signal" ],
					"patching_rect" : [ 120.9892498254776, 546.236583232879639, 42.0, 23.0 ],
					"rnbo_classname" : "cycle~",
					"rnbo_extra_attributes" : 					{
						"interp" : "linear",
						"buffername" : "RNBODefaultSinus",
						"index" : "freq"
					}
,
					"rnbo_serial" : 1,
					"rnbo_uniqueid" : "cycle~_obj-33",
					"text" : "cycle~"
				}

			}
, 			{
				"box" : 				{
					"id" : "obj-32",
					"maxclass" : "newobj",
					"numinlets" : 2,
					"numoutlets" : 1,
					"outlettype" : [ "signal" ],
					"patching_rect" : [ 215.612909913063049, 511.827979564666748, 51.0, 23.0 ],
					"rnbo_classname" : "*~",
					"rnbo_serial" : 3,
					"rnbo_uniqueid" : "*~_obj-32",
					"text" : "*~ 3147"
				}

			}
, 			{
				"box" : 				{
					"id" : "obj-31",
					"maxclass" : "newobj",
					"numinlets" : 2,
					"numoutlets" : 1,
					"outlettype" : [ "signal" ],
					"patching_rect" : [ 143.56989598274231, 511.827979564666748, 47.0, 23.0 ],
					"rnbo_classname" : "*~",
					"rnbo_serial" : 2,
					"rnbo_uniqueid" : "*~_obj-31",
					"text" : "*~ 40.6"
				}

			}
, 			{
				"box" : 				{
					"id" : "obj-30",
					"maxclass" : "newobj",
					"numinlets" : 2,
					"numoutlets" : 1,
					"outlettype" : [ "signal" ],
					"patching_rect" : [ 26.365589737892151, 511.827979564666748, 105.0, 23.0 ],
					"rnbo_classname" : "minimum~",
					"rnbo_serial" : 1,
					"rnbo_uniqueid" : "minimum~_obj-30",
					"text" : "minimum~ 0.1714"
				}

			}
, 			{
				"box" : 				{
					"id" : "obj-29",
					"maxclass" : "newobj",
					"numinlets" : 2,
					"numoutlets" : 1,
					"outlettype" : [ "signal" ],
					"patching_rect" : [ 26.365589737892151, 443.010772228240967, 57.0, 23.0 ],
					"rnbo_classname" : "sig~",
					"rnbo_extra_attributes" : 					{
						"unit" : "ms"
					}
,
					"rnbo_serial" : 1,
					"rnbo_uniqueid" : "sig~_obj-29",
					"text" : "sig~ 1.43"
				}

			}
, 			{
				"box" : 				{
					"id" : "obj-27",
					"maxclass" : "newobj",
					"numinlets" : 2,
					"numoutlets" : 1,
					"outlettype" : [ "" ],
					"patching_rect" : [ 64.0, 406.451630830764771, 42.0, 23.0 ],
					"rnbo_classname" : "+",
					"rnbo_extra_attributes" : 					{
						"hot" : 0
					}
,
					"rnbo_serial" : 2,
					"rnbo_uniqueid" : "+_obj-27",
					"text" : "+ 1.43"
				}

			}
, 			{
				"box" : 				{
					"id" : "obj-26",
					"maxclass" : "newobj",
					"numinlets" : 2,
					"numoutlets" : 1,
					"outlettype" : [ "" ],
					"patching_rect" : [ 64.0, 379.56990921497345, 29.5, 23.0 ],
					"rnbo_classname" : "*",
					"rnbo_extra_attributes" : 					{
						"hot" : 0
					}
,
					"rnbo_serial" : 1,
					"rnbo_uniqueid" : "*_obj-26",
					"text" : "* 1."
				}

			}
, 			{
				"box" : 				{
					"id" : "obj-25",
					"maxclass" : "message",
					"numinlets" : 2,
					"numoutlets" : 1,
					"outlettype" : [ "" ],
					"patching_rect" : [ 95.182797074317932, 343.010767817497253, 29.5, 23.0 ],
					"rnbo_classname" : "message",
					"rnbo_extra_attributes" : 					{
						"text" : ""
					}
,
					"rnbo_serial" : 4,
					"rnbo_uniqueid" : "message_obj-25",
					"text" : "-1"
				}

			}
, 			{
				"box" : 				{
					"id" : "obj-23",
					"maxclass" : "message",
					"numinlets" : 2,
					"numoutlets" : 1,
					"outlettype" : [ "" ],
					"patching_rect" : [ 64.0, 343.010767817497253, 29.5, 23.0 ],
					"rnbo_classname" : "message",
					"rnbo_extra_attributes" : 					{
						"text" : ""
					}
,
					"rnbo_serial" : 3,
					"rnbo_uniqueid" : "message_obj-23",
					"text" : "1"
				}

			}
, 			{
				"box" : 				{
					"id" : "obj-21",
					"maxclass" : "newobj",
					"numinlets" : 2,
					"numoutlets" : 2,
					"outlettype" : [ "", "" ],
					"patching_rect" : [ 64.0, 312.903239607810974, 50.5, 23.0 ],
					"rnbo_classname" : "sel",
					"rnbo_serial" : 2,
					"rnbo_uniqueid" : "sel_obj-21",
					"rnboinfo" : 					{
						"needsInstanceInfo" : 1,
						"argnames" : 						{
							"input" : 							{
								"attrOrProp" : 1,
								"digest" : "Number to test",
								"isalias" : 0,
								"aliases" : [  ],
								"attachable" : 0,
								"isparam" : 0,
								"deprecated" : 0,
								"inlet" : 1,
								"type" : "number"
							}
,
							"test1" : 							{
								"attrOrProp" : 1,
								"digest" : "Set Value (1) to Match",
								"defaultarg" : 1,
								"isalias" : 0,
								"aliases" : [  ],
								"settable" : 1,
								"attachable" : 0,
								"isparam" : 0,
								"deprecated" : 0,
								"inlet" : 1,
								"type" : "number",
								"defaultValue" : "1"
							}
,
							"match1" : 							{
								"attrOrProp" : 1,
								"digest" : "Bang if input matches 1",
								"isalias" : 0,
								"aliases" : [  ],
								"attachable" : 0,
								"isparam" : 0,
								"deprecated" : 0,
								"outlet" : 1,
								"type" : "bang"
							}
,
							"nomatch" : 							{
								"attrOrProp" : 1,
								"digest" : "Input if Input Doesn't Match",
								"isalias" : 0,
								"aliases" : [  ],
								"attachable" : 0,
								"isparam" : 0,
								"deprecated" : 0,
								"outlet" : 1,
								"type" : "number",
								"defaultValue" : "0"
							}

						}
,
						"inputs" : [ 							{
								"name" : "input",
								"type" : [ "number", "bang" ],
								"digest" : "Number to test",
								"hot" : 1,
								"docked" : 0
							}
, 							{
								"name" : "test1",
								"type" : "number",
								"digest" : "Set Value (1) to Match",
								"defaultarg" : 1,
								"docked" : 0
							}
 ],
						"outputs" : [ 							{
								"name" : "match1",
								"type" : "bang",
								"digest" : "Bang if input matches 1",
								"docked" : 0
							}
, 							{
								"name" : "nomatch",
								"type" : [ "number", "bang" ],
								"digest" : "Input if Input Doesn't Match",
								"docked" : 0
							}
 ],
						"helpname" : "select",
						"aliasOf" : "select",
						"classname" : "sel",
						"operator" : 0,
						"versionId" : 902197102,
						"changesPatcherIO" : 0
					}
,
					"text" : "sel 1"
				}

			}
, 			{
				"box" : 				{
					"id" : "obj-20",
					"maxclass" : "newobj",
					"numinlets" : 2,
					"numoutlets" : 1,
					"outlettype" : [ "" ],
					"patching_rect" : [ 133.892476201057434, 343.010767817497253, 41.0, 23.0 ],
					"rnbo_classname" : "/",
					"rnbo_extra_attributes" : 					{
						"hot" : 0
					}
,
					"rnbo_serial" : 1,
					"rnbo_uniqueid" : "/_obj-20",
					"text" : "/ 100."
				}

			}
, 			{
				"box" : 				{
					"id" : "obj-19",
					"maxclass" : "newobj",
					"numinlets" : 2,
					"numoutlets" : 1,
					"outlettype" : [ "" ],
					"patching_rect" : [ 133.892476201057434, 312.903239607810974, 66.0, 23.0 ],
					"rnbo_classname" : "random",
					"rnbo_serial" : 4,
					"rnbo_uniqueid" : "random_obj-19",
					"text" : "random 50"
				}

			}
, 			{
				"box" : 				{
					"id" : "obj-17",
					"maxclass" : "newobj",
					"numinlets" : 2,
					"numoutlets" : 1,
					"outlettype" : [ "" ],
					"patching_rect" : [ 64.0, 252.688183188438416, 59.0, 23.0 ],
					"rnbo_classname" : "random",
					"rnbo_serial" : 3,
					"rnbo_uniqueid" : "random_obj-17",
					"text" : "random 2"
				}

			}
, 			{
				"box" : 				{
					"id" : "obj-16",
					"maxclass" : "newobj",
					"numinlets" : 1,
					"numoutlets" : 2,
					"outlettype" : [ "", "" ],
					"patching_rect" : [ 64.0, 224.0, 32.0, 23.0 ],
					"rnbo_classname" : "t",
					"rnbo_serial" : 4,
					"rnbo_uniqueid" : "t_obj-16",
					"rnboinfo" : 					{
						"needsInstanceInfo" : 1,
						"argnames" : 						{
							"out1" : 							{
								"attrOrProp" : 1,
								"digest" : "Output order 2 (bang).",
								"defaultarg" : 1,
								"isalias" : 0,
								"aliases" : [  ],
								"attachable" : 0,
								"isparam" : 0,
								"deprecated" : 0,
								"outlet" : 1,
								"type" : "bang"
							}
,
							"out2" : 							{
								"attrOrProp" : 1,
								"digest" : "Output order 1 (bang).",
								"defaultarg" : 2,
								"isalias" : 0,
								"aliases" : [  ],
								"attachable" : 0,
								"isparam" : 0,
								"deprecated" : 0,
								"outlet" : 1,
								"type" : "bang"
							}
,
							"triggers" : 							{
								"attrOrProp" : 2,
								"digest" : "The number of arguments determines the number of outlets. \t\t\t\t\t\tEach outlet sends out either a whole number, float, bang or list, \t\t\t\t\t\tas identified by symbol arguments (i, f, b, l). \t\t\t\t\t\tIf there are no arguments, there are two outlets, both of which send a float.",
								"defaultarg" : 1,
								"isalias" : 0,
								"aliases" : [  ],
								"settable" : 1,
								"attachable" : 0,
								"isparam" : 0,
								"deprecated" : 0,
								"type" : "list"
							}

						}
,
						"inputs" : [ 							{
								"name" : "input",
								"type" : [ "bang", "number", "list" ],
								"digest" : "input to distribute",
								"hot" : 1,
								"docked" : 0
							}
 ],
						"outputs" : [ 							{
								"name" : "out1",
								"type" : "bang",
								"digest" : "Output order 2 (bang).",
								"defaultarg" : 1,
								"docked" : 0
							}
, 							{
								"name" : "out2",
								"type" : "bang",
								"digest" : "Output order 1 (bang).",
								"defaultarg" : 2,
								"docked" : 0
							}
 ],
						"helpname" : "trigger",
						"aliasOf" : "trigger",
						"classname" : "t",
						"operator" : 0,
						"versionId" : -1133428571,
						"changesPatcherIO" : 0
					}
,
					"text" : "t b b"
				}

			}
, 			{
				"box" : 				{
					"id" : "obj-12",
					"maxclass" : "message",
					"numinlets" : 2,
					"numoutlets" : 1,
					"outlettype" : [ "" ],
					"patching_rect" : [ 27.0, 224.0, 29.5, 23.0 ],
					"rnbo_classname" : "message",
					"rnbo_extra_attributes" : 					{
						"text" : ""
					}
,
					"rnbo_serial" : 2,
					"rnbo_uniqueid" : "message_obj-12",
					"text" : "0"
				}

			}
, 			{
				"box" : 				{
					"id" : "obj-10",
					"linecount" : 2,
					"maxclass" : "newobj",
					"numinlets" : 0,
					"numoutlets" : 1,
					"outlettype" : [ "" ],
					"patching_rect" : [ 27.0, 18.0, 106.0, 37.0 ],
					"rnbo_classname" : "in",
					"rnbo_extra_attributes" : 					{
						"meta" : ""
					}
,
					"rnbo_serial" : 1,
					"rnbo_uniqueid" : "in_obj-10",
					"rnboinfo" : 					{
						"needsInstanceInfo" : 1,
						"argnames" : 						{
							"index" : 							{
								"attrOrProp" : 2,
								"digest" : "inlet number",
								"defaultarg" : 1,
								"isalias" : 0,
								"aliases" : [  ],
								"settable" : 1,
								"attachable" : 0,
								"isparam" : 0,
								"deprecated" : 0,
								"type" : "number",
								"mandatory" : 1
							}
,
							"comment" : 							{
								"attrOrProp" : 2,
								"digest" : "mouse over comment",
								"isalias" : 0,
								"aliases" : [  ],
								"settable" : 1,
								"attachable" : 0,
								"isparam" : 0,
								"deprecated" : 0,
								"type" : "symbol"
							}
,
							"meta" : 							{
								"attrOrProp" : 2,
								"digest" : "A JSON formatted string containing metadata for use by the exported code",
								"isalias" : 0,
								"aliases" : [  ],
								"settable" : 1,
								"attachable" : 0,
								"isparam" : 0,
								"deprecated" : 0,
								"type" : "symbol",
								"defaultValue" : "",
								"label" : "Metadata",
								"displayorder" : 3
							}

						}
,
						"inputs" : [  ],
						"outputs" : [ 							{
								"name" : "out1",
								"type" : [ "bang", "number", "list" ],
								"digest" : "value from inlet with index 1",
								"displayName" : "trigger (time in ms)",
								"docked" : 0
							}
 ],
						"helpname" : "in",
						"aliasOf" : "in",
						"classname" : "in",
						"operator" : 0,
						"versionId" : 1219109108,
						"changesPatcherIO" : 1
					}
,
					"text" : "in 1 @comment trigger (time in ms)"
				}

			}
, 			{
				"box" : 				{
					"id" : "obj-9",
					"maxclass" : "newobj",
					"numinlets" : 3,
					"numoutlets" : 3,
					"outlettype" : [ "", "", "" ],
					"patching_rect" : [ 27.0, 194.0, 93.0, 23.0 ],
					"rnbo_classname" : "sel",
					"rnbo_serial" : 1,
					"rnbo_uniqueid" : "sel_obj-9",
					"rnboinfo" : 					{
						"needsInstanceInfo" : 1,
						"argnames" : 						{
							"input" : 							{
								"attrOrProp" : 1,
								"digest" : "Number to test",
								"isalias" : 0,
								"aliases" : [  ],
								"attachable" : 0,
								"isparam" : 0,
								"deprecated" : 0,
								"inlet" : 1,
								"type" : "number"
							}
,
							"test1" : 							{
								"attrOrProp" : 1,
								"digest" : "Set Value (1) to Match",
								"defaultarg" : 1,
								"isalias" : 0,
								"aliases" : [  ],
								"settable" : 1,
								"attachable" : 0,
								"isparam" : 0,
								"deprecated" : 0,
								"inlet" : 1,
								"type" : "number",
								"defaultValue" : "0"
							}
,
							"test2" : 							{
								"attrOrProp" : 1,
								"digest" : "Set Value (2) to Match",
								"defaultarg" : 2,
								"isalias" : 0,
								"aliases" : [  ],
								"settable" : 1,
								"attachable" : 0,
								"isparam" : 0,
								"deprecated" : 0,
								"inlet" : 1,
								"type" : "number",
								"defaultValue" : "1"
							}
,
							"match1" : 							{
								"attrOrProp" : 1,
								"digest" : "Bang if input matches 0",
								"isalias" : 0,
								"aliases" : [  ],
								"attachable" : 0,
								"isparam" : 0,
								"deprecated" : 0,
								"outlet" : 1,
								"type" : "bang"
							}
,
							"match2" : 							{
								"attrOrProp" : 1,
								"digest" : "Bang if input matches 1",
								"isalias" : 0,
								"aliases" : [  ],
								"attachable" : 0,
								"isparam" : 0,
								"deprecated" : 0,
								"outlet" : 1,
								"type" : "bang"
							}
,
							"nomatch" : 							{
								"attrOrProp" : 1,
								"digest" : "Input if Input Doesn't Match",
								"isalias" : 0,
								"aliases" : [  ],
								"attachable" : 0,
								"isparam" : 0,
								"deprecated" : 0,
								"outlet" : 1,
								"type" : "number",
								"defaultValue" : "0"
							}

						}
,
						"inputs" : [ 							{
								"name" : "input",
								"type" : [ "number", "bang" ],
								"digest" : "Number to test",
								"hot" : 1,
								"docked" : 0
							}
, 							{
								"name" : "test1",
								"type" : "number",
								"digest" : "Set Value (1) to Match",
								"defaultarg" : 1,
								"docked" : 0
							}
, 							{
								"name" : "test2",
								"type" : "number",
								"digest" : "Set Value (2) to Match",
								"defaultarg" : 2,
								"docked" : 0
							}
 ],
						"outputs" : [ 							{
								"name" : "match1",
								"type" : "bang",
								"digest" : "Bang if input matches 0",
								"docked" : 0
							}
, 							{
								"name" : "match2",
								"type" : "bang",
								"digest" : "Bang if input matches 1",
								"docked" : 0
							}
, 							{
								"name" : "nomatch",
								"type" : [ "number", "bang" ],
								"digest" : "Input if Input Doesn't Match",
								"docked" : 0
							}
 ],
						"helpname" : "select",
						"aliasOf" : "select",
						"classname" : "sel",
						"operator" : 0,
						"versionId" : 902197102,
						"changesPatcherIO" : 0
					}
,
					"text" : "sel 0 1"
				}

			}
, 			{
				"box" : 				{
					"id" : "obj-8",
					"maxclass" : "newobj",
					"numinlets" : 1,
					"numoutlets" : 2,
					"outlettype" : [ "", "" ],
					"patching_rect" : [ 27.0, 64.0, 59.0, 23.0 ],
					"rnbo_classname" : "t",
					"rnbo_serial" : 3,
					"rnbo_uniqueid" : "t_obj-8",
					"rnboinfo" : 					{
						"needsInstanceInfo" : 1,
						"argnames" : 						{
							"out1" : 							{
								"attrOrProp" : 1,
								"digest" : "Output order 2 (number).",
								"defaultarg" : 1,
								"isalias" : 0,
								"aliases" : [  ],
								"attachable" : 0,
								"isparam" : 0,
								"deprecated" : 0,
								"outlet" : 1,
								"type" : "number"
							}
,
							"out2" : 							{
								"attrOrProp" : 1,
								"digest" : "Output order 1 (number).",
								"defaultarg" : 2,
								"isalias" : 0,
								"aliases" : [  ],
								"attachable" : 0,
								"isparam" : 0,
								"deprecated" : 0,
								"outlet" : 1,
								"type" : "number"
							}
,
							"triggers" : 							{
								"attrOrProp" : 2,
								"digest" : "The number of arguments determines the number of outlets. \t\t\t\t\t\tEach outlet sends out either a whole number, float, bang or list, \t\t\t\t\t\tas identified by symbol arguments (i, f, b, l). \t\t\t\t\t\tIf there are no arguments, there are two outlets, both of which send a float.",
								"defaultarg" : 1,
								"isalias" : 0,
								"aliases" : [  ],
								"settable" : 1,
								"attachable" : 0,
								"isparam" : 0,
								"deprecated" : 0,
								"type" : "list"
							}

						}
,
						"inputs" : [ 							{
								"name" : "input",
								"type" : [ "bang", "number", "list" ],
								"digest" : "input to distribute",
								"hot" : 1,
								"docked" : 0
							}
 ],
						"outputs" : [ 							{
								"name" : "out1",
								"type" : "number",
								"digest" : "Output order 2 (number).",
								"defaultarg" : 1,
								"docked" : 0
							}
, 							{
								"name" : "out2",
								"type" : "number",
								"digest" : "Output order 1 (number).",
								"defaultarg" : 2,
								"docked" : 0
							}
 ],
						"helpname" : "trigger",
						"aliasOf" : "trigger",
						"classname" : "t",
						"operator" : 0,
						"versionId" : -1133428571,
						"changesPatcherIO" : 0
					}
,
					"text" : "t i 1"
				}

			}
, 			{
				"box" : 				{
					"id" : "obj-7",
					"maxclass" : "message",
					"numinlets" : 2,
					"numoutlets" : 1,
					"outlettype" : [ "" ],
					"patching_rect" : [ 27.0, 159.0, 29.5, 23.0 ],
					"rnbo_classname" : "message",
					"rnbo_extra_attributes" : 					{
						"text" : ""
					}
,
					"rnbo_serial" : 1,
					"rnbo_uniqueid" : "message_obj-7",
					"text" : "0"
				}

			}
, 			{
				"box" : 				{
					"id" : "obj-5",
					"maxclass" : "newobj",
					"numinlets" : 2,
					"numoutlets" : 1,
					"outlettype" : [ "" ],
					"patching_rect" : [ 27.0, 124.0, 38.0, 23.0 ],
					"rnbo_classname" : "delay",
					"rnbo_serial" : 1,
					"rnbo_uniqueid" : "delay_obj-5",
					"text" : "delay"
				}

			}
, 			{
				"box" : 				{
					"id" : "obj-4",
					"maxclass" : "newobj",
					"numinlets" : 1,
					"numoutlets" : 2,
					"outlettype" : [ "", "" ],
					"patching_rect" : [ 27.0, 93.0, 37.5, 23.0 ],
					"rnbo_classname" : "t",
					"rnbo_serial" : 1,
					"rnbo_uniqueid" : "t_obj-4",
					"rnboinfo" : 					{
						"needsInstanceInfo" : 1,
						"argnames" : 						{
							"out1" : 							{
								"attrOrProp" : 1,
								"digest" : "Output order 2 (bang).",
								"defaultarg" : 1,
								"isalias" : 0,
								"aliases" : [  ],
								"attachable" : 0,
								"isparam" : 0,
								"deprecated" : 0,
								"outlet" : 1,
								"type" : "bang"
							}
,
							"out2" : 							{
								"attrOrProp" : 1,
								"digest" : "Output order 1 (number).",
								"defaultarg" : 2,
								"isalias" : 0,
								"aliases" : [  ],
								"attachable" : 0,
								"isparam" : 0,
								"deprecated" : 0,
								"outlet" : 1,
								"type" : "number"
							}
,
							"triggers" : 							{
								"attrOrProp" : 2,
								"digest" : "The number of arguments determines the number of outlets. \t\t\t\t\t\tEach outlet sends out either a whole number, float, bang or list, \t\t\t\t\t\tas identified by symbol arguments (i, f, b, l). \t\t\t\t\t\tIf there are no arguments, there are two outlets, both of which send a float.",
								"defaultarg" : 1,
								"isalias" : 0,
								"aliases" : [  ],
								"settable" : 1,
								"attachable" : 0,
								"isparam" : 0,
								"deprecated" : 0,
								"type" : "list"
							}

						}
,
						"inputs" : [ 							{
								"name" : "input",
								"type" : [ "bang", "number", "list" ],
								"digest" : "input to distribute",
								"hot" : 1,
								"docked" : 0
							}
 ],
						"outputs" : [ 							{
								"name" : "out1",
								"type" : "bang",
								"digest" : "Output order 2 (bang).",
								"defaultarg" : 1,
								"docked" : 0
							}
, 							{
								"name" : "out2",
								"type" : "number",
								"digest" : "Output order 1 (number).",
								"defaultarg" : 2,
								"docked" : 0
							}
 ],
						"helpname" : "trigger",
						"aliasOf" : "trigger",
						"classname" : "t",
						"operator" : 0,
						"versionId" : -1133428571,
						"changesPatcherIO" : 0
					}
,
					"text" : "t b i"
				}

			}
 ],
		"lines" : [ 			{
				"patchline" : 				{
					"destination" : [ "obj-8", 0 ],
					"source" : [ "obj-10", 0 ]
				}

			}
, 			{
				"patchline" : 				{
					"destination" : [ "obj-29", 0 ],
					"source" : [ "obj-12", 0 ]
				}

			}
, 			{
				"patchline" : 				{
					"destination" : [ "obj-17", 0 ],
					"source" : [ "obj-16", 0 ]
				}

			}
, 			{
				"patchline" : 				{
					"destination" : [ "obj-19", 0 ],
					"midpoints" : [ 86.5, 253.0, 143.392476201057434, 253.0 ],
					"source" : [ "obj-16", 1 ]
				}

			}
, 			{
				"patchline" : 				{
					"destination" : [ "obj-55", 0 ],
					"source" : [ "obj-17", 0 ]
				}

			}
, 			{
				"patchline" : 				{
					"destination" : [ "obj-20", 0 ],
					"source" : [ "obj-19", 0 ]
				}

			}
, 			{
				"patchline" : 				{
					"destination" : [ "obj-26", 1 ],
					"midpoints" : [ 143.392476201057434, 370.096808910369873, 84.0, 370.096808910369873 ],
					"source" : [ "obj-20", 0 ]
				}

			}
, 			{
				"patchline" : 				{
					"destination" : [ "obj-23", 0 ],
					"source" : [ "obj-21", 0 ]
				}

			}
, 			{
				"patchline" : 				{
					"destination" : [ "obj-25", 0 ],
					"source" : [ "obj-21", 1 ]
				}

			}
, 			{
				"patchline" : 				{
					"destination" : [ "obj-26", 0 ],
					"source" : [ "obj-23", 0 ]
				}

			}
, 			{
				"patchline" : 				{
					"destination" : [ "obj-26", 0 ],
					"midpoints" : [ 104.682797074317932, 370.096808910369873, 73.5, 370.096808910369873 ],
					"source" : [ "obj-25", 0 ]
				}

			}
, 			{
				"patchline" : 				{
					"destination" : [ "obj-27", 0 ],
					"source" : [ "obj-26", 0 ]
				}

			}
, 			{
				"patchline" : 				{
					"destination" : [ "obj-29", 0 ],
					"midpoints" : [ 73.5, 435.096808910369873, 36.865589737892151, 435.096808910369873, 36.865589737892151, 437.096808910369873, 35.865589737892151, 437.096808910369873 ],
					"source" : [ "obj-27", 0 ]
				}

			}
, 			{
				"patchline" : 				{
					"destination" : [ "obj-52", 0 ],
					"source" : [ "obj-29", 0 ]
				}

			}
, 			{
				"patchline" : 				{
					"destination" : [ "obj-41", 0 ],
					"source" : [ "obj-30", 0 ]
				}

			}
, 			{
				"patchline" : 				{
					"destination" : [ "obj-33", 1 ],
					"source" : [ "obj-31", 0 ]
				}

			}
, 			{
				"patchline" : 				{
					"destination" : [ "obj-34", 1 ],
					"order" : 1,
					"source" : [ "obj-32", 0 ]
				}

			}
, 			{
				"patchline" : 				{
					"destination" : [ "obj-35", 0 ],
					"order" : 0,
					"source" : [ "obj-32", 0 ]
				}

			}
, 			{
				"patchline" : 				{
					"destination" : [ "obj-40", 1 ],
					"order" : 0,
					"source" : [ "obj-33", 0 ]
				}

			}
, 			{
				"patchline" : 				{
					"destination" : [ "obj-40", 0 ],
					"order" : 1,
					"source" : [ "obj-33", 0 ]
				}

			}
, 			{
				"patchline" : 				{
					"destination" : [ "obj-38", 1 ],
					"midpoints" : [ 178.876348733901978, 619.096808910369873, 140.9892498254776, 619.096808910369873 ],
					"source" : [ "obj-34", 0 ]
				}

			}
, 			{
				"patchline" : 				{
					"destination" : [ "obj-36", 1 ],
					"source" : [ "obj-35", 0 ]
				}

			}
, 			{
				"patchline" : 				{
					"destination" : [ "obj-37", 0 ],
					"source" : [ "obj-36", 0 ]
				}

			}
, 			{
				"patchline" : 				{
					"destination" : [ "obj-38", 1 ],
					"midpoints" : [ 201.456994891166687, 633.096808910369873, 140.9892498254776, 633.096808910369873 ],
					"source" : [ "obj-37", 0 ]
				}

			}
, 			{
				"patchline" : 				{
					"destination" : [ "obj-48", 1 ],
					"midpoints" : [ 130.4892498254776, 723.096808910369873, 46.365589737892151, 723.096808910369873 ],
					"source" : [ "obj-38", 0 ]
				}

			}
, 			{
				"patchline" : 				{
					"destination" : [ "obj-5", 1 ],
					"source" : [ "obj-4", 1 ]
				}

			}
, 			{
				"patchline" : 				{
					"destination" : [ "obj-5", 0 ],
					"source" : [ "obj-4", 0 ]
				}

			}
, 			{
				"patchline" : 				{
					"destination" : [ "obj-38", 0 ],
					"source" : [ "obj-40", 0 ]
				}

			}
, 			{
				"patchline" : 				{
					"destination" : [ "obj-43", 0 ],
					"source" : [ "obj-41", 0 ]
				}

			}
, 			{
				"patchline" : 				{
					"destination" : [ "obj-44", 0 ],
					"source" : [ "obj-43", 0 ]
				}

			}
, 			{
				"patchline" : 				{
					"destination" : [ "obj-45", 1 ],
					"order" : 0,
					"source" : [ "obj-44", 0 ]
				}

			}
, 			{
				"patchline" : 				{
					"destination" : [ "obj-45", 0 ],
					"order" : 1,
					"source" : [ "obj-44", 0 ]
				}

			}
, 			{
				"patchline" : 				{
					"destination" : [ "obj-46", 0 ],
					"source" : [ "obj-45", 0 ]
				}

			}
, 			{
				"patchline" : 				{
					"destination" : [ "obj-47", 0 ],
					"source" : [ "obj-46", 0 ]
				}

			}
, 			{
				"patchline" : 				{
					"destination" : [ "obj-48", 0 ],
					"source" : [ "obj-47", 0 ]
				}

			}
, 			{
				"patchline" : 				{
					"destination" : [ "obj-49", 0 ],
					"source" : [ "obj-48", 0 ]
				}

			}
, 			{
				"patchline" : 				{
					"destination" : [ "obj-50", 0 ],
					"source" : [ "obj-49", 0 ]
				}

			}
, 			{
				"patchline" : 				{
					"destination" : [ "obj-51", 0 ],
					"midpoints" : [ 36.5, 153.0, 95.5, 153.0 ],
					"order" : 0,
					"source" : [ "obj-5", 0 ]
				}

			}
, 			{
				"patchline" : 				{
					"destination" : [ "obj-7", 0 ],
					"order" : 1,
					"source" : [ "obj-5", 0 ]
				}

			}
, 			{
				"patchline" : 				{
					"destination" : [ "obj-30", 0 ],
					"order" : 2,
					"source" : [ "obj-52", 0 ]
				}

			}
, 			{
				"patchline" : 				{
					"destination" : [ "obj-31", 0 ],
					"midpoints" : [ 35.865589737892151, 500.096808910369873, 153.06989598274231, 500.096808910369873 ],
					"order" : 1,
					"source" : [ "obj-52", 0 ]
				}

			}
, 			{
				"patchline" : 				{
					"destination" : [ "obj-32", 0 ],
					"midpoints" : [ 35.865589737892151, 500.096808910369873, 225.112909913063049, 500.096808910369873 ],
					"order" : 0,
					"source" : [ "obj-52", 0 ]
				}

			}
, 			{
				"patchline" : 				{
					"destination" : [ "obj-21", 0 ],
					"source" : [ "obj-55", 0 ]
				}

			}
, 			{
				"patchline" : 				{
					"destination" : [ "obj-9", 0 ],
					"source" : [ "obj-7", 0 ]
				}

			}
, 			{
				"patchline" : 				{
					"destination" : [ "obj-4", 0 ],
					"source" : [ "obj-8", 0 ]
				}

			}
, 			{
				"patchline" : 				{
					"destination" : [ "obj-9", 0 ],
					"midpoints" : [ 76.5, 185.0, 36.5, 185.0 ],
					"source" : [ "obj-8", 1 ]
				}

			}
, 			{
				"patchline" : 				{
					"destination" : [ "obj-12", 0 ],
					"source" : [ "obj-9", 0 ]
				}

			}
, 			{
				"patchline" : 				{
					"destination" : [ "obj-16", 0 ],
					"source" : [ "obj-9", 1 ]
				}

			}
 ],
		"default_bgcolor" : [ 0.031372549019608, 0.125490196078431, 0.211764705882353, 1.0 ],
		"color" : [ 0.929412, 0.929412, 0.352941, 1.0 ],
		"elementcolor" : [ 0.357540726661682, 0.515565991401672, 0.861786782741547, 1.0 ],
		"accentcolor" : [ 0.343034118413925, 0.506230533123016, 0.86220508813858, 1.0 ],
		"stripecolor" : [ 0.258338063955307, 0.352425158023834, 0.511919498443604, 1.0 ],
		"bgfillcolor_type" : "color",
		"bgfillcolor_color" : [ 0.031372549019608, 0.125490196078431, 0.211764705882353, 1.0 ],
		"bgfillcolor_color1" : [ 0.031372549019608, 0.125490196078431, 0.211764705882353, 1.0 ],
		"bgfillcolor_color2" : [ 0.263682, 0.004541, 0.038797, 1.0 ],
		"bgfillcolor_angle" : 270.0,
		"bgfillcolor_proportion" : 0.39,
		"bgfillcolor_autogradient" : 0.0
	}

}
