{
	"patcher" : 	{
		"fileversion" : 1,
		"appversion" : 		{
			"major" : 8,
			"minor" : 6,
			"revision" : 1,
			"architecture" : "x64",
			"modernui" : 1
		}
,
		"classnamespace" : "box",
		"rect" : [ 803.0, 84.0, 699.0, 697.0 ],
		"bglocked" : 0,
		"openinpresentation" : 0,
		"default_fontsize" : 12.0,
		"default_fontface" : 0,
		"default_fontname" : "Arial",
		"gridonopen" : 1,
		"gridsize" : [ 15.0, 15.0 ],
		"gridsnaponopen" : 1,
		"objectsnaponopen" : 1,
		"statusbarvisible" : 2,
		"toolbarvisible" : 1,
		"lefttoolbarpinned" : 0,
		"toptoolbarpinned" : 0,
		"righttoolbarpinned" : 0,
		"bottomtoolbarpinned" : 0,
		"toolbars_unpinned_last_save" : 0,
		"tallnewobj" : 0,
		"boxanimatetime" : 200,
		"enablehscroll" : 1,
		"enablevscroll" : 1,
		"devicewidth" : 0.0,
		"description" : "",
		"digest" : "",
		"tags" : "",
		"style" : "",
		"subpatcher_template" : "",
		"assistshowspatchername" : 0,
		"boxes" : [ 			{
				"box" : 				{
					"format" : 6,
					"id" : "obj-31",
					"maxclass" : "flonum",
					"numinlets" : 1,
					"numoutlets" : 2,
					"outlettype" : [ "", "bang" ],
					"parameter_enable" : 0,
					"patching_rect" : [ 178.0, 294.0, 50.0, 22.0 ]
				}

			}
, 			{
				"box" : 				{
					"id" : "obj-29",
					"lastchannelcount" : 0,
					"maxclass" : "live.gain~",
					"numinlets" : 2,
					"numoutlets" : 5,
					"outlettype" : [ "signal", "signal", "", "float", "list" ],
					"parameter_enable" : 1,
					"patching_rect" : [ 130.0, 469.0, 48.0, 136.0 ],
					"saved_attribute_attributes" : 					{
						"valueof" : 						{
							"parameter_longname" : "live.gain~",
							"parameter_mmax" : 6.0,
							"parameter_mmin" : -70.0,
							"parameter_modmode" : 3,
							"parameter_shortname" : "live.gain~",
							"parameter_type" : 0,
							"parameter_unitstyle" : 4
						}

					}
,
					"varname" : "live.gain~"
				}

			}
, 			{
				"box" : 				{
					"id" : "obj-28",
					"maxclass" : "newobj",
					"numinlets" : 4,
					"numoutlets" : 5,
					"outlettype" : [ "signal", "signal", "", "", "" ],
					"patching_rect" : [ 105.0, 374.0, 61.0, 22.0 ],
					"text" : "yafr"
				}

			}
, 			{
				"box" : 				{
					"id" : "obj-27",
					"maxclass" : "newobj",
					"numinlets" : 2,
					"numoutlets" : 2,
					"outlettype" : [ "bang", "" ],
					"patching_rect" : [ 185.0, 183.0, 34.0, 22.0 ],
					"text" : "sel 1"
				}

			}
, 			{
				"box" : 				{
					"id" : "obj-24",
					"maxclass" : "message",
					"numinlets" : 2,
					"numoutlets" : 1,
					"outlettype" : [ "" ],
					"patching_rect" : [ 185.0, 215.0, 29.5, 22.0 ],
					"text" : "0"
				}

			}
, 			{
				"box" : 				{
					"id" : "obj-22",
					"maxclass" : "newobj",
					"numinlets" : 2,
					"numoutlets" : 2,
					"outlettype" : [ "bang", "" ],
					"patching_rect" : [ 443.0, 296.0, 34.0, 22.0 ],
					"text" : "sel 4"
				}

			}
, 			{
				"box" : 				{
					"id" : "obj-21",
					"maxclass" : "newobj",
					"numinlets" : 5,
					"numoutlets" : 4,
					"outlettype" : [ "int", "", "", "int" ],
					"patching_rect" : [ 443.0, 270.0, 69.0, 22.0 ],
					"text" : "counter 0 7"
				}

			}
, 			{
				"box" : 				{
					"autosave" : 1,
					"id" : "obj-20",
					"inletInfo" : 					{
						"IOInfo" : [ 							{
								"type" : "event",
								"index" : 1,
								"tag" : "in1",
								"comment" : ""
							}
 ]
					}
,
					"maxclass" : "newobj",
					"numinlets" : 1,
					"numoutlets" : 2,
					"outletInfo" : 					{
						"IOInfo" : [ 							{
								"type" : "signal",
								"index" : 1,
								"tag" : "out1",
								"comment" : ""
							}
 ]
					}
,
					"outlettype" : [ "signal", "list" ],
					"patcher" : 					{
						"fileversion" : 1,
						"appversion" : 						{
							"major" : 8,
							"minor" : 6,
							"revision" : 1,
							"architecture" : "x64",
							"modernui" : 1
						}
,
						"classnamespace" : "rnbo",
						"rect" : [ 35.0, 84.0, 699.0, 697.0 ],
						"bglocked" : 0,
						"openinpresentation" : 0,
						"default_fontsize" : 12.0,
						"default_fontface" : 0,
						"default_fontname" : "Lato",
						"gridonopen" : 1,
						"gridsize" : [ 15.0, 15.0 ],
						"gridsnaponopen" : 1,
						"objectsnaponopen" : 1,
						"statusbarvisible" : 2,
						"toolbarvisible" : 1,
						"lefttoolbarpinned" : 0,
						"toptoolbarpinned" : 0,
						"righttoolbarpinned" : 0,
						"bottomtoolbarpinned" : 0,
						"toolbars_unpinned_last_save" : 0,
						"tallnewobj" : 0,
						"boxanimatetime" : 200,
						"enablehscroll" : 1,
						"enablevscroll" : 1,
						"devicewidth" : 0.0,
						"description" : "",
						"digest" : "",
						"tags" : "",
						"style" : "",
						"subpatcher_template" : "",
						"assistshowspatchername" : 0,
						"title" : "snare",
						"boxes" : [ 							{
								"box" : 								{
									"id" : "obj-14",
									"maxclass" : "newobj",
									"numinlets" : 2,
									"numoutlets" : 1,
									"outlettype" : [ "signal" ],
									"patching_rect" : [ 490.0, 369.0, 29.5, 23.0 ],
									"rnbo_classname" : "+~",
									"rnbo_serial" : 1,
									"rnbo_uniqueid" : "+~_obj-14",
									"text" : "+~"
								}

							}
, 							{
								"box" : 								{
									"id" : "obj-13",
									"maxclass" : "newobj",
									"numinlets" : 2,
									"numoutlets" : 1,
									"outlettype" : [ "signal" ],
									"patching_rect" : [ 518.0, 283.0, 47.0, 23.0 ],
									"rnbo_classname" : "*~",
									"rnbo_serial" : 4,
									"rnbo_uniqueid" : "*~_obj-13",
									"text" : "*~ 0.15"
								}

							}
, 							{
								"box" : 								{
									"id" : "obj-12",
									"maxclass" : "newobj",
									"numinlets" : 0,
									"numoutlets" : 1,
									"outlettype" : [ "signal" ],
									"patching_rect" : [ 518.0, 249.0, 43.0, 23.0 ],
									"rnbo_classname" : "noise~",
									"rnbo_serial" : 1,
									"rnbo_uniqueid" : "noise~_obj-12",
									"text" : "noise~"
								}

							}
, 							{
								"box" : 								{
									"id" : "obj-11",
									"maxclass" : "newobj",
									"numinlets" : 2,
									"numoutlets" : 1,
									"outlettype" : [ "signal" ],
									"patching_rect" : [ 415.0, 267.0, 38.0, 23.0 ],
									"rnbo_classname" : "%~",
									"rnbo_serial" : 1,
									"rnbo_uniqueid" : "%~_obj-11",
									"text" : "%~ 1."
								}

							}
, 							{
								"box" : 								{
									"id" : "obj-8",
									"maxclass" : "message",
									"numinlets" : 2,
									"numoutlets" : 1,
									"outlettype" : [ "" ],
									"patching_rect" : [ 415.0, 205.0, 115.0, 23.0 ],
									"rnbo_classname" : "message",
									"rnbo_extra_attributes" : 									{
										"text" : ""
									}
,
									"rnbo_serial" : 1,
									"rnbo_uniqueid" : "message_obj-8",
									"text" : "0 0 0 100 100 -0.95"
								}

							}
, 							{
								"box" : 								{
									"id" : "obj-9",
									"maxclass" : "newobj",
									"numinlets" : 3,
									"numoutlets" : 2,
									"outlettype" : [ "signal", "" ],
									"patching_rect" : [ 415.0, 233.0, 45.0, 23.0 ],
									"rnbo_classname" : "curve~",
									"rnbo_extra_attributes" : 									{
										"value" : 0.0
									}
,
									"rnbo_serial" : 1,
									"rnbo_uniqueid" : "curve~_obj-9",
									"text" : "curve~"
								}

							}
, 							{
								"box" : 								{
									"id" : "obj-7",
									"maxclass" : "newobj",
									"numinlets" : 2,
									"numoutlets" : 2,
									"outlettype" : [ "signal", "signal" ],
									"patching_rect" : [ 375.0, 302.0, 59.0, 23.0 ],
									"rnbo_classname" : "cycle~",
									"rnbo_extra_attributes" : 									{
										"interp" : "linear",
										"buffername" : "RNBODefaultSinus",
										"index" : "freq"
									}
,
									"rnbo_serial" : 2,
									"rnbo_uniqueid" : "cycle~_obj-7",
									"text" : "cycle~ 80"
								}

							}
, 							{
								"box" : 								{
									"id" : "obj-6",
									"maxclass" : "newobj",
									"numinlets" : 2,
									"numoutlets" : 1,
									"outlettype" : [ "signal" ],
									"patching_rect" : [ 241.0, 360.0, 29.5, 23.0 ],
									"rnbo_classname" : "*~",
									"rnbo_serial" : 2,
									"rnbo_uniqueid" : "*~_obj-6",
									"text" : "*~"
								}

							}
, 							{
								"box" : 								{
									"id" : "obj-5",
									"maxclass" : "message",
									"numinlets" : 2,
									"numoutlets" : 1,
									"outlettype" : [ "" ],
									"patching_rect" : [ 197.0, 211.0, 131.0, 23.0 ],
									"rnbo_classname" : "message",
									"rnbo_extra_attributes" : 									{
										"text" : ""
									}
,
									"rnbo_serial" : 2,
									"rnbo_uniqueid" : "message_obj-5",
									"text" : "0 0 0 1 10 0 0 200 -0.5"
								}

							}
, 							{
								"box" : 								{
									"id" : "obj-3",
									"maxclass" : "newobj",
									"numinlets" : 3,
									"numoutlets" : 2,
									"outlettype" : [ "signal", "" ],
									"patching_rect" : [ 300.0, 267.0, 45.0, 23.0 ],
									"rnbo_classname" : "curve~",
									"rnbo_extra_attributes" : 									{
										"value" : 0.0
									}
,
									"rnbo_serial" : 2,
									"rnbo_uniqueid" : "curve~_obj-3",
									"text" : "curve~"
								}

							}
, 							{
								"box" : 								{
									"id" : "obj-2",
									"maxclass" : "newobj",
									"numinlets" : 1,
									"numoutlets" : 0,
									"patching_rect" : [ 241.0, 434.0, 43.0, 23.0 ],
									"rnbo_classname" : "out~",
									"rnbo_extra_attributes" : 									{
										"meta" : "",
										"comment" : ""
									}
,
									"rnbo_serial" : 1,
									"rnbo_uniqueid" : "out~_obj-2",
									"rnboinfo" : 									{
										"needsInstanceInfo" : 1,
										"argnames" : 										{
											"in1" : 											{
												"attrOrProp" : 1,
												"digest" : "signal sent to outlet with index 1",
												"isalias" : 0,
												"aliases" : [  ],
												"settable" : 0,
												"attachable" : 0,
												"isparam" : 0,
												"deprecated" : 0,
												"inlet" : 1,
												"type" : "signal"
											}
,
											"index" : 											{
												"attrOrProp" : 2,
												"digest" : "outlet number",
												"defaultarg" : 1,
												"isalias" : 0,
												"aliases" : [  ],
												"settable" : 1,
												"attachable" : 0,
												"isparam" : 0,
												"deprecated" : 0,
												"type" : "number",
												"mandatory" : 1
											}
,
											"comment" : 											{
												"attrOrProp" : 2,
												"digest" : "mouse over comment",
												"isalias" : 0,
												"aliases" : [  ],
												"settable" : 1,
												"attachable" : 0,
												"isparam" : 0,
												"deprecated" : 0,
												"type" : "symbol"
											}
,
											"meta" : 											{
												"attrOrProp" : 2,
												"digest" : "A JSON formatted string containing metadata for use by the exported code",
												"isalias" : 0,
												"aliases" : [  ],
												"settable" : 1,
												"attachable" : 0,
												"isparam" : 0,
												"deprecated" : 0,
												"type" : "symbol",
												"defaultValue" : "",
												"label" : "Metadata",
												"displayorder" : 3
											}

										}
,
										"inputs" : [ 											{
												"name" : "in1",
												"type" : "signal",
												"digest" : "signal sent to outlet with index 1",
												"displayName" : "",
												"hot" : 1,
												"docked" : 0
											}
 ],
										"outputs" : [  ],
										"helpname" : "out~",
										"aliasOf" : "out~",
										"classname" : "out~",
										"operator" : 0,
										"versionId" : 374499139,
										"changesPatcherIO" : 1
									}
,
									"text" : "out~ 1"
								}

							}
, 							{
								"box" : 								{
									"id" : "obj-1",
									"maxclass" : "newobj",
									"numinlets" : 0,
									"numoutlets" : 1,
									"outlettype" : [ "" ],
									"patching_rect" : [ 300.0, 166.0, 28.0, 23.0 ],
									"rnbo_classname" : "in",
									"rnbo_extra_attributes" : 									{
										"meta" : "",
										"comment" : ""
									}
,
									"rnbo_serial" : 1,
									"rnbo_uniqueid" : "in_obj-1",
									"rnboinfo" : 									{
										"needsInstanceInfo" : 1,
										"argnames" : 										{
											"index" : 											{
												"attrOrProp" : 2,
												"digest" : "inlet number",
												"defaultarg" : 1,
												"isalias" : 0,
												"aliases" : [  ],
												"settable" : 1,
												"attachable" : 0,
												"isparam" : 0,
												"deprecated" : 0,
												"type" : "number",
												"mandatory" : 1
											}
,
											"comment" : 											{
												"attrOrProp" : 2,
												"digest" : "mouse over comment",
												"isalias" : 0,
												"aliases" : [  ],
												"settable" : 1,
												"attachable" : 0,
												"isparam" : 0,
												"deprecated" : 0,
												"type" : "symbol"
											}
,
											"meta" : 											{
												"attrOrProp" : 2,
												"digest" : "A JSON formatted string containing metadata for use by the exported code",
												"isalias" : 0,
												"aliases" : [  ],
												"settable" : 1,
												"attachable" : 0,
												"isparam" : 0,
												"deprecated" : 0,
												"type" : "symbol",
												"defaultValue" : "",
												"label" : "Metadata",
												"displayorder" : 3
											}

										}
,
										"inputs" : [  ],
										"outputs" : [ 											{
												"name" : "out1",
												"type" : [ "bang", "number", "list" ],
												"digest" : "value from inlet with index 1",
												"displayName" : "",
												"docked" : 0
											}
 ],
										"helpname" : "in",
										"aliasOf" : "in",
										"classname" : "in",
										"operator" : 0,
										"versionId" : 1219109108,
										"changesPatcherIO" : 1
									}
,
									"text" : "in 1"
								}

							}
 ],
						"lines" : [ 							{
								"patchline" : 								{
									"destination" : [ "obj-5", 0 ],
									"order" : 1,
									"source" : [ "obj-1", 0 ]
								}

							}
, 							{
								"patchline" : 								{
									"destination" : [ "obj-8", 0 ],
									"midpoints" : [ 309.5, 201.0, 424.5, 201.0 ],
									"order" : 0,
									"source" : [ "obj-1", 0 ]
								}

							}
, 							{
								"patchline" : 								{
									"destination" : [ "obj-7", 1 ],
									"source" : [ "obj-11", 0 ]
								}

							}
, 							{
								"patchline" : 								{
									"destination" : [ "obj-13", 0 ],
									"source" : [ "obj-12", 0 ]
								}

							}
, 							{
								"patchline" : 								{
									"destination" : [ "obj-14", 0 ],
									"source" : [ "obj-13", 0 ]
								}

							}
, 							{
								"patchline" : 								{
									"destination" : [ "obj-6", 1 ],
									"source" : [ "obj-14", 0 ]
								}

							}
, 							{
								"patchline" : 								{
									"destination" : [ "obj-6", 0 ],
									"source" : [ "obj-3", 0 ]
								}

							}
, 							{
								"patchline" : 								{
									"destination" : [ "obj-3", 0 ],
									"source" : [ "obj-5", 0 ]
								}

							}
, 							{
								"patchline" : 								{
									"destination" : [ "obj-2", 0 ],
									"source" : [ "obj-6", 0 ]
								}

							}
, 							{
								"patchline" : 								{
									"destination" : [ "obj-14", 1 ],
									"source" : [ "obj-7", 0 ]
								}

							}
, 							{
								"patchline" : 								{
									"destination" : [ "obj-9", 0 ],
									"source" : [ "obj-8", 0 ]
								}

							}
, 							{
								"patchline" : 								{
									"destination" : [ "obj-11", 0 ],
									"source" : [ "obj-9", 0 ]
								}

							}
 ],
						"default_bgcolor" : [ 0.031372549019608, 0.125490196078431, 0.211764705882353, 1.0 ],
						"color" : [ 0.929412, 0.929412, 0.352941, 1.0 ],
						"elementcolor" : [ 0.357540726661682, 0.515565991401672, 0.861786782741547, 1.0 ],
						"accentcolor" : [ 0.343034118413925, 0.506230533123016, 0.86220508813858, 1.0 ],
						"stripecolor" : [ 0.258338063955307, 0.352425158023834, 0.511919498443604, 1.0 ],
						"bgfillcolor_type" : "color",
						"bgfillcolor_color" : [ 0.031372549019608, 0.125490196078431, 0.211764705882353, 1.0 ],
						"bgfillcolor_color1" : [ 0.031372549019608, 0.125490196078431, 0.211764705882353, 1.0 ],
						"bgfillcolor_color2" : [ 0.263682, 0.004541, 0.038797, 1.0 ],
						"bgfillcolor_angle" : 270.0,
						"bgfillcolor_proportion" : 0.39,
						"bgfillcolor_autogradient" : 0.0
					}
,
					"patching_rect" : [ 443.0, 325.0, 107.0, 22.0 ],
					"presentation_linecount" : 2,
					"rnboattrcache" : 					{

					}
,
					"rnboversion" : "1.2.5",
					"saved_attribute_attributes" : 					{
						"valueof" : 						{
							"parameter_invisible" : 1,
							"parameter_longname" : "rnbo~[2]",
							"parameter_modmode" : 0,
							"parameter_shortname" : "rnbo~",
							"parameter_type" : 3
						}

					}
,
					"saved_object_attributes" : 					{
						"optimization" : "O1",
						"parameter_enable" : 1,
						"uuid" : "20df80ab-0606-11ef-80ab-1068384f72df"
					}
,
					"snapshot" : 					{
						"filetype" : "C74Snapshot",
						"version" : 2,
						"minorversion" : 0,
						"name" : "snapshotlist",
						"origin" : "rnbo~",
						"type" : "list",
						"subtype" : "Undefined",
						"embed" : 1,
						"snapshot" : 						{
							"__presetid" : "snare"
						}
,
						"snapshotlist" : 						{
							"current_snapshot" : 0,
							"entries" : [ 								{
									"filetype" : "C74Snapshot",
									"version" : 2,
									"minorversion" : 0,
									"name" : "snare",
									"origin" : "snare",
									"type" : "rnbo",
									"subtype" : "",
									"embed" : 0,
									"snapshot" : 									{
										"__presetid" : "snare"
									}
,
									"fileref" : 									{
										"name" : "snare",
										"filename" : "snare.maxsnap",
										"filepath" : "~/Documents/Max 8/Snapshots",
										"filepos" : -1,
										"snapshotfileid" : "f6e0e0be703fa36e8dc8d4dd7bf21b76"
									}

								}
 ]
						}

					}
,
					"text" : "rnbo~ @title snare",
					"varname" : "rnbo~[2]"
				}

			}
, 			{
				"box" : 				{
					"id" : "obj-18",
					"maxclass" : "newobj",
					"numinlets" : 2,
					"numoutlets" : 2,
					"outlettype" : [ "bang", "" ],
					"patching_rect" : [ 231.0, 296.0, 34.0, 22.0 ],
					"text" : "sel 0"
				}

			}
, 			{
				"box" : 				{
					"id" : "obj-19",
					"maxclass" : "newobj",
					"numinlets" : 5,
					"numoutlets" : 4,
					"outlettype" : [ "int", "", "", "int" ],
					"patching_rect" : [ 231.0, 270.0, 69.0, 22.0 ],
					"text" : "counter 0 1"
				}

			}
, 			{
				"box" : 				{
					"id" : "obj-11",
					"maxclass" : "newobj",
					"numinlets" : 2,
					"numoutlets" : 2,
					"outlettype" : [ "bang", "" ],
					"patching_rect" : [ 343.0, 296.0, 34.0, 22.0 ],
					"text" : "sel 0"
				}

			}
, 			{
				"box" : 				{
					"id" : "obj-10",
					"maxclass" : "newobj",
					"numinlets" : 5,
					"numoutlets" : 4,
					"outlettype" : [ "int", "", "", "int" ],
					"patching_rect" : [ 343.0, 270.0, 69.0, 22.0 ],
					"text" : "counter 0 3"
				}

			}
, 			{
				"box" : 				{
					"autosave" : 1,
					"id" : "obj-9",
					"inletInfo" : 					{
						"IOInfo" : [ 							{
								"type" : "event",
								"index" : 1,
								"tag" : "in1",
								"comment" : ""
							}
 ]
					}
,
					"maxclass" : "newobj",
					"numinlets" : 1,
					"numoutlets" : 2,
					"outletInfo" : 					{
						"IOInfo" : [ 							{
								"type" : "signal",
								"index" : 1,
								"tag" : "out1",
								"comment" : ""
							}
 ]
					}
,
					"outlettype" : [ "signal", "list" ],
					"patcher" : 					{
						"fileversion" : 1,
						"appversion" : 						{
							"major" : 8,
							"minor" : 6,
							"revision" : 1,
							"architecture" : "x64",
							"modernui" : 1
						}
,
						"classnamespace" : "rnbo",
						"rect" : [ 35.0, 84.0, 699.0, 697.0 ],
						"bglocked" : 0,
						"openinpresentation" : 0,
						"default_fontsize" : 12.0,
						"default_fontface" : 0,
						"default_fontname" : "Lato",
						"gridonopen" : 1,
						"gridsize" : [ 15.0, 15.0 ],
						"gridsnaponopen" : 1,
						"objectsnaponopen" : 1,
						"statusbarvisible" : 2,
						"toolbarvisible" : 1,
						"lefttoolbarpinned" : 0,
						"toptoolbarpinned" : 0,
						"righttoolbarpinned" : 0,
						"bottomtoolbarpinned" : 0,
						"toolbars_unpinned_last_save" : 0,
						"tallnewobj" : 0,
						"boxanimatetime" : 200,
						"enablehscroll" : 1,
						"enablevscroll" : 1,
						"devicewidth" : 0.0,
						"description" : "",
						"digest" : "",
						"tags" : "",
						"style" : "",
						"subpatcher_template" : "",
						"assistshowspatchername" : 0,
						"title" : "hat",
						"boxes" : [ 							{
								"box" : 								{
									"id" : "obj-20",
									"maxclass" : "newobj",
									"numinlets" : 2,
									"numoutlets" : 1,
									"outlettype" : [ "signal" ],
									"patching_rect" : [ 353.0, 93.0, 40.0, 23.0 ],
									"rnbo_classname" : "*~",
									"rnbo_serial" : 7,
									"rnbo_uniqueid" : "*~_obj-20",
									"text" : "*~ 0.4"
								}

							}
, 							{
								"box" : 								{
									"id" : "obj-19",
									"maxclass" : "newobj",
									"numinlets" : 2,
									"numoutlets" : 1,
									"outlettype" : [ "signal" ],
									"patching_rect" : [ 276.0, 103.0, 29.5, 23.0 ],
									"rnbo_classname" : "*~",
									"rnbo_serial" : 5,
									"rnbo_uniqueid" : "*~_obj-19",
									"text" : "*~"
								}

							}
, 							{
								"box" : 								{
									"id" : "obj-18",
									"maxclass" : "newobj",
									"numinlets" : 0,
									"numoutlets" : 1,
									"outlettype" : [ "signal" ],
									"patching_rect" : [ 423.0, 62.0, 43.0, 23.0 ],
									"rnbo_classname" : "noise~",
									"rnbo_serial" : 2,
									"rnbo_uniqueid" : "noise~_obj-18",
									"text" : "noise~"
								}

							}
, 							{
								"box" : 								{
									"id" : "obj-17",
									"maxclass" : "newobj",
									"numinlets" : 2,
									"numoutlets" : 1,
									"outlettype" : [ "signal" ],
									"patching_rect" : [ 263.0, 336.0, 47.0, 23.0 ],
									"rnbo_classname" : "*~",
									"rnbo_serial" : 8,
									"rnbo_uniqueid" : "*~_obj-17",
									"text" : "*~ 0.25"
								}

							}
, 							{
								"box" : 								{
									"id" : "obj-15",
									"maxclass" : "message",
									"numinlets" : 2,
									"numoutlets" : 1,
									"outlettype" : [ "" ],
									"patching_rect" : [ 273.0, -29.0, 131.0, 23.0 ],
									"presentation_linecount" : 2,
									"rnbo_classname" : "message",
									"rnbo_extra_attributes" : 									{
										"text" : ""
									}
,
									"rnbo_serial" : 3,
									"rnbo_uniqueid" : "message_obj-15",
									"text" : "4000 0 0 2000 50 0.03"
								}

							}
, 							{
								"box" : 								{
									"id" : "obj-16",
									"maxclass" : "newobj",
									"numinlets" : 3,
									"numoutlets" : 2,
									"outlettype" : [ "signal", "" ],
									"patching_rect" : [ 273.0, 23.0, 45.0, 23.0 ],
									"rnbo_classname" : "curve~",
									"rnbo_extra_attributes" : 									{
										"value" : 0.0
									}
,
									"rnbo_serial" : 3,
									"rnbo_uniqueid" : "curve~_obj-16",
									"text" : "curve~"
								}

							}
, 							{
								"box" : 								{
									"id" : "obj-13",
									"maxclass" : "newobj",
									"numinlets" : 6,
									"numoutlets" : 1,
									"outlettype" : [ "signal" ],
									"patching_rect" : [ 303.0, 229.0, 127.0, 23.0 ],
									"rnbo_classname" : "scale~",
									"rnbo_serial" : 3,
									"rnbo_uniqueid" : "scale~_obj-13",
									"text" : "scale~ -1. 1. 4000 400"
								}

							}
, 							{
								"box" : 								{
									"id" : "obj-14",
									"maxclass" : "newobj",
									"numinlets" : 2,
									"numoutlets" : 2,
									"outlettype" : [ "signal", "signal" ],
									"patching_rect" : [ 321.0, 273.0, 67.0, 23.0 ],
									"rnbo_classname" : "saw~",
									"rnbo_serial" : 1,
									"rnbo_uniqueid" : "saw~_obj-14",
									"text" : "saw~ 1000"
								}

							}
, 							{
								"box" : 								{
									"id" : "obj-12",
									"maxclass" : "newobj",
									"numinlets" : 6,
									"numoutlets" : 1,
									"outlettype" : [ "signal" ],
									"patching_rect" : [ 297.0, 139.0, 134.0, 23.0 ],
									"rnbo_classname" : "scale~",
									"rnbo_serial" : 1,
									"rnbo_uniqueid" : "scale~_obj-12",
									"text" : "scale~ -1. 1. 4000 1000"
								}

							}
, 							{
								"box" : 								{
									"id" : "obj-11",
									"maxclass" : "newobj",
									"numinlets" : 2,
									"numoutlets" : 2,
									"outlettype" : [ "signal", "signal" ],
									"patching_rect" : [ 273.0, 62.0, 73.0, 23.0 ],
									"rnbo_classname" : "cycle~",
									"rnbo_extra_attributes" : 									{
										"interp" : "linear",
										"buffername" : "RNBODefaultSinus",
										"index" : "freq"
									}
,
									"rnbo_serial" : 6,
									"rnbo_uniqueid" : "cycle~_obj-11",
									"text" : "cycle~ 4000"
								}

							}
, 							{
								"box" : 								{
									"id" : "obj-10",
									"maxclass" : "newobj",
									"numinlets" : 2,
									"numoutlets" : 1,
									"outlettype" : [ "signal" ],
									"patching_rect" : [ 313.0, 325.0, 29.5, 23.0 ],
									"rnbo_classname" : "*~",
									"rnbo_serial" : 2,
									"rnbo_uniqueid" : "*~_obj-10",
									"text" : "*~"
								}

							}
, 							{
								"box" : 								{
									"id" : "obj-8",
									"maxclass" : "message",
									"numinlets" : 2,
									"numoutlets" : 1,
									"outlettype" : [ "" ],
									"patching_rect" : [ 490.0, 296.0, 141.0, 23.0 ],
									"presentation_linecount" : 2,
									"rnbo_classname" : "message",
									"rnbo_extra_attributes" : 									{
										"text" : ""
									}
,
									"rnbo_serial" : 2,
									"rnbo_uniqueid" : "message_obj-8",
									"text" : "0 0 0 0.25 10 0 0 50 -0.5"
								}

							}
, 							{
								"box" : 								{
									"id" : "obj-9",
									"maxclass" : "newobj",
									"numinlets" : 3,
									"numoutlets" : 2,
									"outlettype" : [ "signal", "" ],
									"patching_rect" : [ 490.0, 348.0, 45.0, 23.0 ],
									"rnbo_classname" : "curve~",
									"rnbo_extra_attributes" : 									{
										"value" : 0.0
									}
,
									"rnbo_serial" : 2,
									"rnbo_uniqueid" : "curve~_obj-9",
									"text" : "curve~"
								}

							}
, 							{
								"box" : 								{
									"id" : "obj-7",
									"maxclass" : "newobj",
									"numinlets" : 0,
									"numoutlets" : 1,
									"outlettype" : [ "signal" ],
									"patching_rect" : [ 418.0, 254.0, 43.0, 23.0 ],
									"rnbo_classname" : "noise~",
									"rnbo_serial" : 1,
									"rnbo_uniqueid" : "noise~_obj-7",
									"text" : "noise~"
								}

							}
, 							{
								"box" : 								{
									"id" : "obj-6",
									"maxclass" : "newobj",
									"numinlets" : 2,
									"numoutlets" : 2,
									"outlettype" : [ "signal", "signal" ],
									"patching_rect" : [ 315.0, 183.0, 73.0, 23.0 ],
									"rnbo_classname" : "cycle~",
									"rnbo_extra_attributes" : 									{
										"interp" : "linear",
										"buffername" : "RNBODefaultSinus",
										"index" : "freq"
									}
,
									"rnbo_serial" : 3,
									"rnbo_uniqueid" : "cycle~_obj-6",
									"text" : "cycle~ 1000"
								}

							}
, 							{
								"box" : 								{
									"id" : "obj-4",
									"maxclass" : "newobj",
									"numinlets" : 2,
									"numoutlets" : 1,
									"outlettype" : [ "signal" ],
									"patching_rect" : [ 194.0, 377.0, 29.5, 23.0 ],
									"rnbo_classname" : "*~",
									"rnbo_serial" : 1,
									"rnbo_uniqueid" : "*~_obj-4",
									"text" : "*~"
								}

							}
, 							{
								"box" : 								{
									"id" : "obj-5",
									"maxclass" : "message",
									"numinlets" : 2,
									"numoutlets" : 1,
									"outlettype" : [ "" ],
									"patching_rect" : [ 102.0, 229.0, 134.0, 23.0 ],
									"rnbo_classname" : "message",
									"rnbo_extra_attributes" : 									{
										"text" : ""
									}
,
									"rnbo_serial" : 1,
									"rnbo_uniqueid" : "message_obj-5",
									"text" : "0 0 0 1 10 0.9 0 40 -0.2"
								}

							}
, 							{
								"box" : 								{
									"id" : "obj-3",
									"maxclass" : "newobj",
									"numinlets" : 3,
									"numoutlets" : 2,
									"outlettype" : [ "signal", "" ],
									"patching_rect" : [ 173.0, 267.0, 45.0, 23.0 ],
									"rnbo_classname" : "curve~",
									"rnbo_extra_attributes" : 									{
										"value" : 0.0
									}
,
									"rnbo_serial" : 1,
									"rnbo_uniqueid" : "curve~_obj-3",
									"text" : "curve~"
								}

							}
, 							{
								"box" : 								{
									"id" : "obj-2",
									"maxclass" : "newobj",
									"numinlets" : 0,
									"numoutlets" : 1,
									"outlettype" : [ "" ],
									"patching_rect" : [ 181.5, 171.0, 28.0, 23.0 ],
									"rnbo_classname" : "in",
									"rnbo_extra_attributes" : 									{
										"meta" : "",
										"comment" : ""
									}
,
									"rnbo_serial" : 1,
									"rnbo_uniqueid" : "in_obj-2",
									"rnboinfo" : 									{
										"needsInstanceInfo" : 1,
										"argnames" : 										{
											"index" : 											{
												"attrOrProp" : 2,
												"digest" : "inlet number",
												"defaultarg" : 1,
												"isalias" : 0,
												"aliases" : [  ],
												"settable" : 1,
												"attachable" : 0,
												"isparam" : 0,
												"deprecated" : 0,
												"type" : "number",
												"mandatory" : 1
											}
,
											"comment" : 											{
												"attrOrProp" : 2,
												"digest" : "mouse over comment",
												"isalias" : 0,
												"aliases" : [  ],
												"settable" : 1,
												"attachable" : 0,
												"isparam" : 0,
												"deprecated" : 0,
												"type" : "symbol"
											}
,
											"meta" : 											{
												"attrOrProp" : 2,
												"digest" : "A JSON formatted string containing metadata for use by the exported code",
												"isalias" : 0,
												"aliases" : [  ],
												"settable" : 1,
												"attachable" : 0,
												"isparam" : 0,
												"deprecated" : 0,
												"type" : "symbol",
												"defaultValue" : "",
												"label" : "Metadata",
												"displayorder" : 3
											}

										}
,
										"inputs" : [  ],
										"outputs" : [ 											{
												"name" : "out1",
												"type" : [ "bang", "number", "list" ],
												"digest" : "value from inlet with index 1",
												"displayName" : "",
												"docked" : 0
											}
 ],
										"helpname" : "in",
										"aliasOf" : "in",
										"classname" : "in",
										"operator" : 0,
										"versionId" : 1219109108,
										"changesPatcherIO" : 1
									}
,
									"text" : "in 1"
								}

							}
, 							{
								"box" : 								{
									"id" : "obj-1",
									"maxclass" : "newobj",
									"numinlets" : 1,
									"numoutlets" : 0,
									"patching_rect" : [ 221.0, 432.0, 43.0, 23.0 ],
									"rnbo_classname" : "out~",
									"rnbo_extra_attributes" : 									{
										"meta" : "",
										"comment" : ""
									}
,
									"rnbo_serial" : 1,
									"rnbo_uniqueid" : "out~_obj-1",
									"rnboinfo" : 									{
										"needsInstanceInfo" : 1,
										"argnames" : 										{
											"in1" : 											{
												"attrOrProp" : 1,
												"digest" : "signal sent to outlet with index 1",
												"isalias" : 0,
												"aliases" : [  ],
												"settable" : 0,
												"attachable" : 0,
												"isparam" : 0,
												"deprecated" : 0,
												"inlet" : 1,
												"type" : "signal"
											}
,
											"index" : 											{
												"attrOrProp" : 2,
												"digest" : "outlet number",
												"defaultarg" : 1,
												"isalias" : 0,
												"aliases" : [  ],
												"settable" : 1,
												"attachable" : 0,
												"isparam" : 0,
												"deprecated" : 0,
												"type" : "number",
												"mandatory" : 1
											}
,
											"comment" : 											{
												"attrOrProp" : 2,
												"digest" : "mouse over comment",
												"isalias" : 0,
												"aliases" : [  ],
												"settable" : 1,
												"attachable" : 0,
												"isparam" : 0,
												"deprecated" : 0,
												"type" : "symbol"
											}
,
											"meta" : 											{
												"attrOrProp" : 2,
												"digest" : "A JSON formatted string containing metadata for use by the exported code",
												"isalias" : 0,
												"aliases" : [  ],
												"settable" : 1,
												"attachable" : 0,
												"isparam" : 0,
												"deprecated" : 0,
												"type" : "symbol",
												"defaultValue" : "",
												"label" : "Metadata",
												"displayorder" : 3
											}

										}
,
										"inputs" : [ 											{
												"name" : "in1",
												"type" : "signal",
												"digest" : "signal sent to outlet with index 1",
												"displayName" : "",
												"hot" : 1,
												"docked" : 0
											}
 ],
										"outputs" : [  ],
										"helpname" : "out~",
										"aliasOf" : "out~",
										"classname" : "out~",
										"operator" : 0,
										"versionId" : 374499139,
										"changesPatcherIO" : 1
									}
,
									"text" : "out~ 1"
								}

							}
 ],
						"lines" : [ 							{
								"patchline" : 								{
									"destination" : [ "obj-4", 1 ],
									"source" : [ "obj-10", 0 ]
								}

							}
, 							{
								"patchline" : 								{
									"destination" : [ "obj-19", 0 ],
									"source" : [ "obj-11", 0 ]
								}

							}
, 							{
								"patchline" : 								{
									"destination" : [ "obj-6", 0 ],
									"source" : [ "obj-12", 0 ]
								}

							}
, 							{
								"patchline" : 								{
									"destination" : [ "obj-14", 0 ],
									"source" : [ "obj-13", 0 ]
								}

							}
, 							{
								"patchline" : 								{
									"destination" : [ "obj-17", 0 ],
									"source" : [ "obj-14", 0 ]
								}

							}
, 							{
								"patchline" : 								{
									"destination" : [ "obj-16", 0 ],
									"source" : [ "obj-15", 0 ]
								}

							}
, 							{
								"patchline" : 								{
									"destination" : [ "obj-11", 0 ],
									"source" : [ "obj-16", 0 ]
								}

							}
, 							{
								"patchline" : 								{
									"destination" : [ "obj-4", 1 ],
									"source" : [ "obj-17", 0 ]
								}

							}
, 							{
								"patchline" : 								{
									"destination" : [ "obj-20", 0 ],
									"source" : [ "obj-18", 0 ]
								}

							}
, 							{
								"patchline" : 								{
									"destination" : [ "obj-12", 0 ],
									"source" : [ "obj-19", 0 ]
								}

							}
, 							{
								"patchline" : 								{
									"destination" : [ "obj-15", 0 ],
									"order" : 1,
									"source" : [ "obj-2", 0 ]
								}

							}
, 							{
								"patchline" : 								{
									"destination" : [ "obj-5", 0 ],
									"order" : 2,
									"source" : [ "obj-2", 0 ]
								}

							}
, 							{
								"patchline" : 								{
									"destination" : [ "obj-8", 0 ],
									"order" : 0,
									"source" : [ "obj-2", 0 ]
								}

							}
, 							{
								"patchline" : 								{
									"destination" : [ "obj-19", 1 ],
									"source" : [ "obj-20", 0 ]
								}

							}
, 							{
								"patchline" : 								{
									"destination" : [ "obj-4", 0 ],
									"source" : [ "obj-3", 0 ]
								}

							}
, 							{
								"patchline" : 								{
									"destination" : [ "obj-1", 0 ],
									"source" : [ "obj-4", 0 ]
								}

							}
, 							{
								"patchline" : 								{
									"destination" : [ "obj-3", 0 ],
									"source" : [ "obj-5", 0 ]
								}

							}
, 							{
								"patchline" : 								{
									"destination" : [ "obj-13", 0 ],
									"source" : [ "obj-6", 0 ]
								}

							}
, 							{
								"patchline" : 								{
									"destination" : [ "obj-10", 0 ],
									"source" : [ "obj-7", 0 ]
								}

							}
, 							{
								"patchline" : 								{
									"destination" : [ "obj-9", 0 ],
									"source" : [ "obj-8", 0 ]
								}

							}
, 							{
								"patchline" : 								{
									"destination" : [ "obj-10", 1 ],
									"source" : [ "obj-9", 0 ]
								}

							}
 ],
						"default_bgcolor" : [ 0.031372549019608, 0.125490196078431, 0.211764705882353, 1.0 ],
						"color" : [ 0.929412, 0.929412, 0.352941, 1.0 ],
						"elementcolor" : [ 0.357540726661682, 0.515565991401672, 0.861786782741547, 1.0 ],
						"accentcolor" : [ 0.343034118413925, 0.506230533123016, 0.86220508813858, 1.0 ],
						"stripecolor" : [ 0.258338063955307, 0.352425158023834, 0.511919498443604, 1.0 ],
						"bgfillcolor_type" : "color",
						"bgfillcolor_color" : [ 0.031372549019608, 0.125490196078431, 0.211764705882353, 1.0 ],
						"bgfillcolor_color1" : [ 0.031372549019608, 0.125490196078431, 0.211764705882353, 1.0 ],
						"bgfillcolor_color2" : [ 0.263682, 0.004541, 0.038797, 1.0 ],
						"bgfillcolor_angle" : 270.0,
						"bgfillcolor_proportion" : 0.39,
						"bgfillcolor_autogradient" : 0.0
					}
,
					"patching_rect" : [ 231.0, 325.0, 94.0, 22.0 ],
					"rnboattrcache" : 					{

					}
,
					"rnboversion" : "1.2.5",
					"saved_attribute_attributes" : 					{
						"valueof" : 						{
							"parameter_invisible" : 1,
							"parameter_longname" : "rnbo~[1]",
							"parameter_modmode" : 0,
							"parameter_shortname" : "rnbo~[1]",
							"parameter_type" : 3
						}

					}
,
					"saved_object_attributes" : 					{
						"optimization" : "O1",
						"parameter_enable" : 1,
						"uuid" : "918621a1-0607-11ef-a1a1-1068384f72df"
					}
,
					"snapshot" : 					{
						"filetype" : "C74Snapshot",
						"version" : 2,
						"minorversion" : 0,
						"name" : "snapshotlist",
						"origin" : "rnbo~",
						"type" : "list",
						"subtype" : "Undefined",
						"embed" : 1,
						"snapshot" : 						{
							"__presetid" : "hat"
						}
,
						"snapshotlist" : 						{
							"current_snapshot" : 0,
							"entries" : [ 								{
									"filetype" : "C74Snapshot",
									"version" : 2,
									"minorversion" : 0,
									"name" : "hat",
									"origin" : "hat",
									"type" : "rnbo",
									"subtype" : "",
									"embed" : 0,
									"snapshot" : 									{
										"__presetid" : "hat"
									}
,
									"fileref" : 									{
										"name" : "hat",
										"filename" : "hat.maxsnap",
										"filepath" : "~/Documents/Max 8/Snapshots",
										"filepos" : -1,
										"snapshotfileid" : "61c283510bac93fa368f85774893df57"
									}

								}
 ]
						}

					}
,
					"text" : "rnbo~ @title hat",
					"varname" : "rnbo~[1]"
				}

			}
, 			{
				"box" : 				{
					"id" : "obj-7",
					"maxclass" : "toggle",
					"numinlets" : 1,
					"numoutlets" : 1,
					"outlettype" : [ "int" ],
					"parameter_enable" : 0,
					"patching_rect" : [ 185.0, 140.0, 24.0, 24.0 ]
				}

			}
, 			{
				"box" : 				{
					"id" : "obj-5",
					"maxclass" : "newobj",
					"numinlets" : 2,
					"numoutlets" : 1,
					"outlettype" : [ "bang" ],
					"patching_rect" : [ 231.0, 215.0, 62.0, 22.0 ],
					"text" : "metro 110"
				}

			}
, 			{
				"box" : 				{
					"id" : "obj-4",
					"maxclass" : "ezdac~",
					"numinlets" : 2,
					"numoutlets" : 0,
					"patching_rect" : [ 260.0, 548.0, 45.0, 45.0 ]
				}

			}
, 			{
				"box" : 				{
					"autosave" : 1,
					"id" : "obj-1",
					"inletInfo" : 					{
						"IOInfo" : [ 							{
								"type" : "event",
								"index" : 1,
								"tag" : "in1",
								"comment" : ""
							}
 ]
					}
,
					"maxclass" : "newobj",
					"numinlets" : 1,
					"numoutlets" : 2,
					"outletInfo" : 					{
						"IOInfo" : [ 							{
								"type" : "signal",
								"index" : 1,
								"tag" : "out1",
								"comment" : ""
							}
 ]
					}
,
					"outlettype" : [ "signal", "list" ],
					"patcher" : 					{
						"fileversion" : 1,
						"appversion" : 						{
							"major" : 8,
							"minor" : 6,
							"revision" : 1,
							"architecture" : "x64",
							"modernui" : 1
						}
,
						"classnamespace" : "rnbo",
						"rect" : [ 35.0, 84.0, 699.0, 697.0 ],
						"bglocked" : 0,
						"openinpresentation" : 0,
						"default_fontsize" : 12.0,
						"default_fontface" : 0,
						"default_fontname" : "Lato",
						"gridonopen" : 1,
						"gridsize" : [ 15.0, 15.0 ],
						"gridsnaponopen" : 1,
						"objectsnaponopen" : 1,
						"statusbarvisible" : 2,
						"toolbarvisible" : 1,
						"lefttoolbarpinned" : 0,
						"toptoolbarpinned" : 0,
						"righttoolbarpinned" : 0,
						"bottomtoolbarpinned" : 0,
						"toolbars_unpinned_last_save" : 0,
						"tallnewobj" : 0,
						"boxanimatetime" : 200,
						"enablehscroll" : 1,
						"enablevscroll" : 1,
						"devicewidth" : 0.0,
						"description" : "",
						"digest" : "",
						"tags" : "",
						"style" : "",
						"subpatcher_template" : "",
						"assistshowspatchername" : 0,
						"title" : "kick",
						"boxes" : [ 							{
								"box" : 								{
									"id" : "obj-14",
									"maxclass" : "newobj",
									"numinlets" : 2,
									"numoutlets" : 1,
									"outlettype" : [ "signal" ],
									"patching_rect" : [ 498.0, 329.0, 29.5, 23.0 ],
									"rnbo_classname" : "+~",
									"rnbo_serial" : 1,
									"rnbo_uniqueid" : "+~_obj-14",
									"text" : "+~"
								}

							}
, 							{
								"box" : 								{
									"id" : "obj-13",
									"maxclass" : "newobj",
									"numinlets" : 2,
									"numoutlets" : 1,
									"outlettype" : [ "signal" ],
									"patching_rect" : [ 518.0, 283.0, 54.0, 23.0 ],
									"rnbo_classname" : "*~",
									"rnbo_serial" : 3,
									"rnbo_uniqueid" : "*~_obj-13",
									"text" : "*~ 0.001"
								}

							}
, 							{
								"box" : 								{
									"id" : "obj-12",
									"maxclass" : "newobj",
									"numinlets" : 0,
									"numoutlets" : 1,
									"outlettype" : [ "signal" ],
									"patching_rect" : [ 518.0, 249.0, 43.0, 23.0 ],
									"rnbo_classname" : "noise~",
									"rnbo_serial" : 1,
									"rnbo_uniqueid" : "noise~_obj-12",
									"text" : "noise~"
								}

							}
, 							{
								"box" : 								{
									"id" : "obj-11",
									"maxclass" : "newobj",
									"numinlets" : 2,
									"numoutlets" : 1,
									"outlettype" : [ "signal" ],
									"patching_rect" : [ 415.0, 267.0, 38.0, 23.0 ],
									"rnbo_classname" : "%~",
									"rnbo_serial" : 2,
									"rnbo_uniqueid" : "%~_obj-11",
									"text" : "%~ 1."
								}

							}
, 							{
								"box" : 								{
									"id" : "obj-8",
									"maxclass" : "message",
									"numinlets" : 2,
									"numoutlets" : 1,
									"outlettype" : [ "" ],
									"patching_rect" : [ 415.0, 205.0, 101.0, 23.0 ],
									"rnbo_classname" : "message",
									"rnbo_extra_attributes" : 									{
										"text" : ""
									}
,
									"rnbo_serial" : 2,
									"rnbo_uniqueid" : "message_obj-8",
									"text" : "0 0 0 50 80 -0.95"
								}

							}
, 							{
								"box" : 								{
									"id" : "obj-9",
									"maxclass" : "newobj",
									"numinlets" : 3,
									"numoutlets" : 2,
									"outlettype" : [ "signal", "" ],
									"patching_rect" : [ 415.0, 233.0, 45.0, 23.0 ],
									"rnbo_classname" : "curve~",
									"rnbo_extra_attributes" : 									{
										"value" : 0.0
									}
,
									"rnbo_serial" : 2,
									"rnbo_uniqueid" : "curve~_obj-9",
									"text" : "curve~"
								}

							}
, 							{
								"box" : 								{
									"id" : "obj-7",
									"maxclass" : "newobj",
									"numinlets" : 2,
									"numoutlets" : 2,
									"outlettype" : [ "signal", "signal" ],
									"patching_rect" : [ 375.0, 302.0, 59.0, 23.0 ],
									"rnbo_classname" : "cycle~",
									"rnbo_extra_attributes" : 									{
										"interp" : "linear",
										"buffername" : "RNBODefaultSinus",
										"index" : "freq"
									}
,
									"rnbo_serial" : 3,
									"rnbo_uniqueid" : "cycle~_obj-7",
									"text" : "cycle~ 40"
								}

							}
, 							{
								"box" : 								{
									"id" : "obj-6",
									"maxclass" : "newobj",
									"numinlets" : 2,
									"numoutlets" : 1,
									"outlettype" : [ "signal" ],
									"patching_rect" : [ 241.0, 360.0, 29.5, 23.0 ],
									"rnbo_classname" : "*~",
									"rnbo_serial" : 1,
									"rnbo_uniqueid" : "*~_obj-6",
									"text" : "*~"
								}

							}
, 							{
								"box" : 								{
									"id" : "obj-5",
									"linecount" : 2,
									"maxclass" : "message",
									"numinlets" : 2,
									"numoutlets" : 1,
									"outlettype" : [ "" ],
									"patching_rect" : [ 300.0, 215.0, 78.0, 37.0 ],
									"rnbo_classname" : "message",
									"rnbo_extra_attributes" : 									{
										"text" : ""
									}
,
									"rnbo_serial" : 1,
									"rnbo_uniqueid" : "message_obj-5",
									"text" : "0 0 0 1 10 0 0 300 0.5"
								}

							}
, 							{
								"box" : 								{
									"id" : "obj-3",
									"maxclass" : "newobj",
									"numinlets" : 3,
									"numoutlets" : 2,
									"outlettype" : [ "signal", "" ],
									"patching_rect" : [ 300.0, 267.0, 45.0, 23.0 ],
									"rnbo_classname" : "curve~",
									"rnbo_extra_attributes" : 									{
										"value" : 0.0
									}
,
									"rnbo_serial" : 1,
									"rnbo_uniqueid" : "curve~_obj-3",
									"text" : "curve~"
								}

							}
, 							{
								"box" : 								{
									"id" : "obj-2",
									"maxclass" : "newobj",
									"numinlets" : 1,
									"numoutlets" : 0,
									"patching_rect" : [ 241.0, 434.0, 43.0, 23.0 ],
									"rnbo_classname" : "out~",
									"rnbo_extra_attributes" : 									{
										"meta" : "",
										"comment" : ""
									}
,
									"rnbo_serial" : 1,
									"rnbo_uniqueid" : "out~_obj-2",
									"rnboinfo" : 									{
										"needsInstanceInfo" : 1,
										"argnames" : 										{
											"in1" : 											{
												"attrOrProp" : 1,
												"digest" : "signal sent to outlet with index 1",
												"isalias" : 0,
												"aliases" : [  ],
												"settable" : 0,
												"attachable" : 0,
												"isparam" : 0,
												"deprecated" : 0,
												"inlet" : 1,
												"type" : "signal"
											}
,
											"index" : 											{
												"attrOrProp" : 2,
												"digest" : "outlet number",
												"defaultarg" : 1,
												"isalias" : 0,
												"aliases" : [  ],
												"settable" : 1,
												"attachable" : 0,
												"isparam" : 0,
												"deprecated" : 0,
												"type" : "number",
												"mandatory" : 1
											}
,
											"comment" : 											{
												"attrOrProp" : 2,
												"digest" : "mouse over comment",
												"isalias" : 0,
												"aliases" : [  ],
												"settable" : 1,
												"attachable" : 0,
												"isparam" : 0,
												"deprecated" : 0,
												"type" : "symbol"
											}
,
											"meta" : 											{
												"attrOrProp" : 2,
												"digest" : "A JSON formatted string containing metadata for use by the exported code",
												"isalias" : 0,
												"aliases" : [  ],
												"settable" : 1,
												"attachable" : 0,
												"isparam" : 0,
												"deprecated" : 0,
												"type" : "symbol",
												"defaultValue" : "",
												"label" : "Metadata",
												"displayorder" : 3
											}

										}
,
										"inputs" : [ 											{
												"name" : "in1",
												"type" : "signal",
												"digest" : "signal sent to outlet with index 1",
												"displayName" : "",
												"hot" : 1,
												"docked" : 0
											}
 ],
										"outputs" : [  ],
										"helpname" : "out~",
										"aliasOf" : "out~",
										"classname" : "out~",
										"operator" : 0,
										"versionId" : 374499139,
										"changesPatcherIO" : 1
									}
,
									"text" : "out~ 1"
								}

							}
, 							{
								"box" : 								{
									"id" : "obj-1",
									"maxclass" : "newobj",
									"numinlets" : 0,
									"numoutlets" : 1,
									"outlettype" : [ "" ],
									"patching_rect" : [ 300.0, 166.0, 28.0, 23.0 ],
									"rnbo_classname" : "in",
									"rnbo_extra_attributes" : 									{
										"meta" : "",
										"comment" : ""
									}
,
									"rnbo_serial" : 1,
									"rnbo_uniqueid" : "in_obj-1",
									"rnboinfo" : 									{
										"needsInstanceInfo" : 1,
										"argnames" : 										{
											"index" : 											{
												"attrOrProp" : 2,
												"digest" : "inlet number",
												"defaultarg" : 1,
												"isalias" : 0,
												"aliases" : [  ],
												"settable" : 1,
												"attachable" : 0,
												"isparam" : 0,
												"deprecated" : 0,
												"type" : "number",
												"mandatory" : 1
											}
,
											"comment" : 											{
												"attrOrProp" : 2,
												"digest" : "mouse over comment",
												"isalias" : 0,
												"aliases" : [  ],
												"settable" : 1,
												"attachable" : 0,
												"isparam" : 0,
												"deprecated" : 0,
												"type" : "symbol"
											}
,
											"meta" : 											{
												"attrOrProp" : 2,
												"digest" : "A JSON formatted string containing metadata for use by the exported code",
												"isalias" : 0,
												"aliases" : [  ],
												"settable" : 1,
												"attachable" : 0,
												"isparam" : 0,
												"deprecated" : 0,
												"type" : "symbol",
												"defaultValue" : "",
												"label" : "Metadata",
												"displayorder" : 3
											}

										}
,
										"inputs" : [  ],
										"outputs" : [ 											{
												"name" : "out1",
												"type" : [ "bang", "number", "list" ],
												"digest" : "value from inlet with index 1",
												"displayName" : "",
												"docked" : 0
											}
 ],
										"helpname" : "in",
										"aliasOf" : "in",
										"classname" : "in",
										"operator" : 0,
										"versionId" : 1219109108,
										"changesPatcherIO" : 1
									}
,
									"text" : "in 1"
								}

							}
 ],
						"lines" : [ 							{
								"patchline" : 								{
									"destination" : [ "obj-5", 0 ],
									"order" : 1,
									"source" : [ "obj-1", 0 ]
								}

							}
, 							{
								"patchline" : 								{
									"destination" : [ "obj-8", 0 ],
									"midpoints" : [ 309.5, 201.0, 424.5, 201.0 ],
									"order" : 0,
									"source" : [ "obj-1", 0 ]
								}

							}
, 							{
								"patchline" : 								{
									"destination" : [ "obj-7", 1 ],
									"source" : [ "obj-11", 0 ]
								}

							}
, 							{
								"patchline" : 								{
									"destination" : [ "obj-13", 0 ],
									"source" : [ "obj-12", 0 ]
								}

							}
, 							{
								"patchline" : 								{
									"destination" : [ "obj-14", 0 ],
									"source" : [ "obj-13", 0 ]
								}

							}
, 							{
								"patchline" : 								{
									"destination" : [ "obj-6", 1 ],
									"source" : [ "obj-14", 0 ]
								}

							}
, 							{
								"patchline" : 								{
									"destination" : [ "obj-6", 0 ],
									"source" : [ "obj-3", 0 ]
								}

							}
, 							{
								"patchline" : 								{
									"destination" : [ "obj-3", 0 ],
									"source" : [ "obj-5", 0 ]
								}

							}
, 							{
								"patchline" : 								{
									"destination" : [ "obj-2", 0 ],
									"source" : [ "obj-6", 0 ]
								}

							}
, 							{
								"patchline" : 								{
									"destination" : [ "obj-14", 1 ],
									"source" : [ "obj-7", 0 ]
								}

							}
, 							{
								"patchline" : 								{
									"destination" : [ "obj-9", 0 ],
									"source" : [ "obj-8", 0 ]
								}

							}
, 							{
								"patchline" : 								{
									"destination" : [ "obj-11", 0 ],
									"source" : [ "obj-9", 0 ]
								}

							}
 ],
						"default_bgcolor" : [ 0.031372549019608, 0.125490196078431, 0.211764705882353, 1.0 ],
						"color" : [ 0.929412, 0.929412, 0.352941, 1.0 ],
						"elementcolor" : [ 0.357540726661682, 0.515565991401672, 0.861786782741547, 1.0 ],
						"accentcolor" : [ 0.343034118413925, 0.506230533123016, 0.86220508813858, 1.0 ],
						"stripecolor" : [ 0.258338063955307, 0.352425158023834, 0.511919498443604, 1.0 ],
						"bgfillcolor_type" : "color",
						"bgfillcolor_color" : [ 0.031372549019608, 0.125490196078431, 0.211764705882353, 1.0 ],
						"bgfillcolor_color1" : [ 0.031372549019608, 0.125490196078431, 0.211764705882353, 1.0 ],
						"bgfillcolor_color2" : [ 0.263682, 0.004541, 0.038797, 1.0 ],
						"bgfillcolor_angle" : 270.0,
						"bgfillcolor_proportion" : 0.39,
						"bgfillcolor_autogradient" : 0.0
					}
,
					"patching_rect" : [ 343.0, 325.0, 98.0, 22.0 ],
					"rnboattrcache" : 					{

					}
,
					"rnboversion" : "1.2.5",
					"saved_attribute_attributes" : 					{
						"valueof" : 						{
							"parameter_invisible" : 1,
							"parameter_longname" : "rnbo~",
							"parameter_modmode" : 0,
							"parameter_shortname" : "rnbo~",
							"parameter_type" : 3
						}

					}
,
					"saved_object_attributes" : 					{
						"optimization" : "O1",
						"parameter_enable" : 1,
						"uuid" : "20df80ab-0606-11ef-80ab-1068384f72df"
					}
,
					"snapshot" : 					{
						"filetype" : "C74Snapshot",
						"version" : 2,
						"minorversion" : 0,
						"name" : "snapshotlist",
						"origin" : "rnbo~",
						"type" : "list",
						"subtype" : "Undefined",
						"embed" : 1,
						"snapshot" : 						{
							"__presetid" : "kick"
						}
,
						"snapshotlist" : 						{
							"current_snapshot" : 0,
							"entries" : [ 								{
									"filetype" : "C74Snapshot",
									"version" : 2,
									"minorversion" : 0,
									"name" : "kick",
									"origin" : "kick",
									"type" : "rnbo",
									"subtype" : "",
									"embed" : 0,
									"snapshot" : 									{
										"__presetid" : "kick"
									}
,
									"fileref" : 									{
										"name" : "kick",
										"filename" : "kick.maxsnap",
										"filepath" : "~/Documents/Max 8/Snapshots",
										"filepos" : -1,
										"snapshotfileid" : "9841e6b194cb97d2bddf0c287e3b291b"
									}

								}
 ]
						}

					}
,
					"text" : "rnbo~ @title kick",
					"varname" : "rnbo~"
				}

			}
 ],
		"lines" : [ 			{
				"patchline" : 				{
					"destination" : [ "obj-28", 0 ],
					"order" : 2,
					"source" : [ "obj-1", 0 ]
				}

			}
, 			{
				"patchline" : 				{
					"destination" : [ "obj-4", 1 ],
					"order" : 0,
					"source" : [ "obj-1", 0 ]
				}

			}
, 			{
				"patchline" : 				{
					"destination" : [ "obj-4", 0 ],
					"order" : 1,
					"source" : [ "obj-1", 0 ]
				}

			}
, 			{
				"patchline" : 				{
					"destination" : [ "obj-11", 0 ],
					"source" : [ "obj-10", 0 ]
				}

			}
, 			{
				"patchline" : 				{
					"destination" : [ "obj-1", 0 ],
					"source" : [ "obj-11", 0 ]
				}

			}
, 			{
				"patchline" : 				{
					"destination" : [ "obj-9", 0 ],
					"source" : [ "obj-18", 0 ]
				}

			}
, 			{
				"patchline" : 				{
					"destination" : [ "obj-18", 0 ],
					"source" : [ "obj-19", 0 ]
				}

			}
, 			{
				"patchline" : 				{
					"destination" : [ "obj-28", 0 ],
					"order" : 2,
					"source" : [ "obj-20", 0 ]
				}

			}
, 			{
				"patchline" : 				{
					"destination" : [ "obj-4", 1 ],
					"order" : 0,
					"source" : [ "obj-20", 0 ]
				}

			}
, 			{
				"patchline" : 				{
					"destination" : [ "obj-4", 0 ],
					"order" : 1,
					"source" : [ "obj-20", 0 ]
				}

			}
, 			{
				"patchline" : 				{
					"destination" : [ "obj-22", 0 ],
					"source" : [ "obj-21", 0 ]
				}

			}
, 			{
				"patchline" : 				{
					"destination" : [ "obj-20", 0 ],
					"source" : [ "obj-22", 0 ]
				}

			}
, 			{
				"patchline" : 				{
					"destination" : [ "obj-10", 2 ],
					"midpoints" : [ 194.5, 255.0, 377.5, 255.0 ],
					"order" : 1,
					"source" : [ "obj-24", 0 ]
				}

			}
, 			{
				"patchline" : 				{
					"destination" : [ "obj-19", 2 ],
					"midpoints" : [ 194.5, 255.0, 265.5, 255.0 ],
					"order" : 2,
					"source" : [ "obj-24", 0 ]
				}

			}
, 			{
				"patchline" : 				{
					"destination" : [ "obj-21", 2 ],
					"midpoints" : [ 194.5, 255.0, 477.5, 255.0 ],
					"order" : 0,
					"source" : [ "obj-24", 0 ]
				}

			}
, 			{
				"patchline" : 				{
					"destination" : [ "obj-24", 0 ],
					"source" : [ "obj-27", 0 ]
				}

			}
, 			{
				"patchline" : 				{
					"destination" : [ "obj-29", 1 ],
					"source" : [ "obj-28", 1 ]
				}

			}
, 			{
				"patchline" : 				{
					"destination" : [ "obj-29", 0 ],
					"source" : [ "obj-28", 0 ]
				}

			}
, 			{
				"patchline" : 				{
					"destination" : [ "obj-4", 1 ],
					"source" : [ "obj-29", 1 ]
				}

			}
, 			{
				"patchline" : 				{
					"destination" : [ "obj-4", 0 ],
					"source" : [ "obj-29", 0 ]
				}

			}
, 			{
				"patchline" : 				{
					"destination" : [ "obj-28", 3 ],
					"order" : 0,
					"source" : [ "obj-31", 0 ]
				}

			}
, 			{
				"patchline" : 				{
					"destination" : [ "obj-28", 2 ],
					"order" : 1,
					"source" : [ "obj-31", 0 ]
				}

			}
, 			{
				"patchline" : 				{
					"destination" : [ "obj-28", 1 ],
					"order" : 2,
					"source" : [ "obj-31", 0 ]
				}

			}
, 			{
				"patchline" : 				{
					"destination" : [ "obj-10", 0 ],
					"midpoints" : [ 240.5, 255.0, 352.5, 255.0 ],
					"order" : 1,
					"source" : [ "obj-5", 0 ]
				}

			}
, 			{
				"patchline" : 				{
					"destination" : [ "obj-19", 0 ],
					"order" : 2,
					"source" : [ "obj-5", 0 ]
				}

			}
, 			{
				"patchline" : 				{
					"destination" : [ "obj-21", 0 ],
					"midpoints" : [ 240.5, 255.0, 452.5, 255.0 ],
					"order" : 0,
					"source" : [ "obj-5", 0 ]
				}

			}
, 			{
				"patchline" : 				{
					"destination" : [ "obj-27", 0 ],
					"order" : 1,
					"source" : [ "obj-7", 0 ]
				}

			}
, 			{
				"patchline" : 				{
					"destination" : [ "obj-5", 0 ],
					"midpoints" : [ 194.5, 170.0, 240.5, 170.0 ],
					"order" : 0,
					"source" : [ "obj-7", 0 ]
				}

			}
, 			{
				"patchline" : 				{
					"destination" : [ "obj-28", 0 ],
					"order" : 2,
					"source" : [ "obj-9", 0 ]
				}

			}
, 			{
				"patchline" : 				{
					"destination" : [ "obj-4", 1 ],
					"order" : 0,
					"source" : [ "obj-9", 0 ]
				}

			}
, 			{
				"patchline" : 				{
					"destination" : [ "obj-4", 0 ],
					"order" : 1,
					"source" : [ "obj-9", 0 ]
				}

			}
 ],
		"parameters" : 		{
			"obj-1" : [ "rnbo~", "rnbo~", 0 ],
			"obj-20" : [ "rnbo~[2]", "rnbo~", 0 ],
			"obj-29" : [ "live.gain~", "live.gain~", 0 ],
			"obj-9" : [ "rnbo~[1]", "rnbo~[1]", 0 ],
			"parameterbanks" : 			{
				"0" : 				{
					"index" : 0,
					"name" : "",
					"parameters" : [ "-", "-", "-", "-", "-", "-", "-", "-" ]
				}

			}
,
			"inherited_shortname" : 1
		}
,
		"dependency_cache" : [ 			{
				"name" : "hat.maxsnap",
				"bootpath" : "~/Documents/Max 8/Snapshots",
				"patcherrelativepath" : "../../../Documents/Max 8/Snapshots",
				"type" : "mx@s",
				"implicit" : 1
			}
, 			{
				"name" : "kick.maxsnap",
				"bootpath" : "~/Documents/Max 8/Snapshots",
				"patcherrelativepath" : "../../../Documents/Max 8/Snapshots",
				"type" : "mx@s",
				"implicit" : 1
			}
, 			{
				"name" : "snare.maxsnap",
				"bootpath" : "~/Documents/Max 8/Snapshots",
				"patcherrelativepath" : "../../../Documents/Max 8/Snapshots",
				"type" : "mx@s",
				"implicit" : 1
			}
, 			{
				"name" : "yafr.maxpat",
				"bootpath" : "~/AppData/Roaming/Cycling '74/Max 8/examples/legacy-examples/effects/reverb",
				"patcherrelativepath" : "../../../AppData/Roaming/Cycling '74/Max 8/examples/legacy-examples/effects/reverb",
				"type" : "JSON",
				"implicit" : 1
			}
 ],
		"autosave" : 0
	}

}
